<svg width="139" height="70" viewBox="0 0 139 70" fill="none" xmlns="http://www.w3.org/2000/svg">
<path d="M0 69.8167V0.18147C0 0.0816619 0.0819415 0 0.182093 0H2.939C3.03916 0 3.1211 0.0816619 3.1211 0.18147V69.8167C3.1211 69.9183 3.03916 69.9982 2.939 69.9982H0.182093C0.0819415 69.9964 0 69.9165 0 69.8167ZM5.47376 69.8167V0.18147C5.47376 0.0816619 5.5557 0 5.65585 0H6.31139C6.41155 0 6.49349 0.0816619 6.49349 0.18147V69.8167C6.49349 69.9183 6.41155 69.9982 6.31139 69.9982H5.65585C5.5557 69.9964 5.47376 69.9165 5.47376 69.8167ZM10.7418 69.8167V0.18147C10.7418 0.0816619 10.8237 0 10.9238 0H15.2814C15.3815 0 15.4635 0.0816619 15.4635 0.18147V69.8167C15.4635 69.9183 15.3815 69.9982 15.2814 69.9982H10.9238C10.8237 69.9964 10.7418 69.9165 10.7418 69.8167ZM19.4386 69.8167V0.18147C19.4386 0.0816619 19.5205 0 19.6207 0H25.9011C26.0013 0 26.0832 0.0816619 26.0832 0.18147V69.8167C26.0832 69.9183 26.0013 69.9982 25.9011 69.9982H19.6207C19.5205 69.9964 19.4386 69.9165 19.4386 69.8167ZM28.5215 69.8167V0.18147C28.5215 0.0816619 28.6034 0 28.7036 0H29.2535C29.3536 0 29.4356 0.0816619 29.4356 0.18147V69.8167C29.4356 69.9183 29.3536 69.9982 29.2535 69.9982H28.7036C28.6016 69.9964 28.5215 69.9165 28.5215 69.8167ZM31.6589 69.8167V0.18147C31.6589 0.0816619 31.7409 0 31.841 0H36.4535C36.5536 0 36.6356 0.0816619 36.6356 0.18147V69.8167C36.6356 69.9183 36.5536 69.9982 36.4535 69.9982H31.841C31.7409 69.9964 31.6589 69.9165 31.6589 69.8167ZM39.0174 69.8167V0.18147C39.0174 0.0816619 39.0993 0 39.1995 0H39.8514C39.9515 0 40.0335 0.0816619 40.0335 0.18147V69.8167C40.0335 69.9183 39.9515 69.9982 39.8514 69.9982H39.1995C39.0993 69.9964 39.0174 69.9165 39.0174 69.8167ZM42.3989 69.8167V0.18147C42.3989 0.0816619 42.4808 0 42.581 0H45.3725C45.4726 0 45.5546 0.0816619 45.5546 0.18147V69.8167C45.5546 69.9183 45.4726 69.9982 45.3725 69.9982H42.581C42.4808 69.9964 42.3989 69.9165 42.3989 69.8167ZM49.7118 69.8167V0.18147C49.7118 0.0816619 49.7937 0 49.8939 0H54.0056C54.1057 0 54.1877 0.0816619 54.1877 0.18147V69.8167C54.1877 69.9183 54.1057 69.9982 54.0056 69.9982H49.8939C49.7937 69.9964 49.7118 69.9165 49.7118 69.8167ZM58.4159 69.8167V0.18147C58.4159 0.0816619 58.4979 0 58.598 0H59.208C59.3082 0 59.3901 0.0816619 59.3901 0.18147V69.8167C59.3901 69.9183 59.3082 69.9982 59.208 69.9982H58.598C58.496 69.9964 58.4159 69.9165 58.4159 69.8167ZM65.6068 69.8167V0.18147C65.6068 0.0816619 65.6888 0 65.7889 0H66.4918C66.5919 0 66.6739 0.0816619 66.6739 0.18147V69.8167C66.6739 69.9183 66.5919 69.9982 66.4918 69.9982H65.7889C65.6888 69.9964 65.6068 69.9165 65.6068 69.8167ZM68.8663 69.8167V0.18147C68.8663 0.0816619 68.9482 0 69.0484 0H71.8563C71.9583 0 72.0384 0.0816619 72.0384 0.18147V69.8167C72.0384 69.9183 71.9583 69.9982 71.8563 69.9982H69.0484C68.9482 69.9964 68.8663 69.9165 68.8663 69.8167ZM77.7489 69.8167V0.18147C77.7489 0.0816619 77.829 0 77.931 0H82.4451C82.5471 0 82.6272 0.0816619 82.6272 0.18147V69.8167C82.6272 69.9183 82.5471 69.9982 82.4451 69.9982H77.931C77.829 69.9964 77.7489 69.9165 77.7489 69.8167ZM88.3668 69.8167V0.18147C88.3668 0.0816619 88.4469 0 88.5489 0H89.2026C89.3046 0 89.3847 0.0816619 89.3847 0.18147V69.8185C89.3847 69.9201 89.3046 70 89.2026 70H88.5489C88.4469 69.9964 88.3668 69.9165 88.3668 69.8167ZM91.812 69.8167V0.18147C91.812 0.0816619 91.8922 0 91.9941 0H94.7073C94.8093 0 94.8894 0.0816619 94.8894 0.18147V69.8167C94.8894 69.9183 94.8093 69.9982 94.7073 69.9982H91.9941C91.8922 69.9964 91.812 69.9165 91.812 69.8167ZM97.3878 69.8167V0.18147C97.3878 0.0816619 97.4679 0 97.5699 0H98.2072C98.3092 0 98.3893 0.0816619 98.3893 0.18147V69.8185C98.3893 69.9201 98.3092 70 98.2072 70H97.5699C97.4679 69.9964 97.3878 69.9165 97.3878 69.8167ZM100.516 69.8167V0.18147C100.516 0.0816619 100.596 0 100.698 0H103.688C103.79 0 103.87 0.0816619 103.87 0.18147V69.8167C103.87 69.9183 103.79 69.9982 103.688 69.9982H100.698C100.596 69.9964 100.516 69.9165 100.516 69.8167ZM105.821 69.8167V0.18147C105.821 0.0816619 105.901 0 106.003 0H110.502C110.604 0 110.684 0.0816619 110.684 0.18147V69.8167C110.684 69.9183 110.604 69.9982 110.502 69.9982H106.003C105.901 69.9964 105.821 69.9165 105.821 69.8167ZM116.63 69.8167V0.18147C116.63 0.0816619 116.71 0 116.812 0H119.574C119.676 0 119.756 0.0816619 119.756 0.18147V69.8167C119.756 69.9183 119.676 69.9982 119.574 69.9982H116.812C116.71 69.9964 116.63 69.9165 116.63 69.8167ZM125.301 69.8167V0.18147C125.301 0.0816619 125.381 0 125.483 0H130.035C130.137 0 130.218 0.0816619 130.218 0.18147V69.8167C130.218 69.9183 130.137 69.9982 130.035 69.9982H125.483C125.381 69.9964 125.301 69.9165 125.301 69.8167ZM132.623 69.8167V0.18147C132.623 0.0816619 132.703 0 132.805 0H133.461C133.563 0 133.643 0.0816619 133.643 0.18147V69.8167C133.643 69.9183 133.563 69.9982 133.461 69.9982H132.805C132.703 69.9964 132.623 69.9165 132.623 69.8167ZM139 69.8167C139 69.9183 138.92 69.9982 138.818 69.9982H135.966C135.864 69.9982 135.782 69.9183 135.782 69.8167C135.782 69.8149 135.784 69.8149 135.784 69.8131V0.18147C135.784 0.0816619 135.864 0 135.966 0H138.818C138.92 0 139 0.0816619 139 0.18147V69.8167Z" fill="black"/>
</svg>
