<svg width="283" height="70" viewBox="0 0 283 70" fill="none" xmlns="http://www.w3.org/2000/svg">
<path d="M89.778 4.578H98.019C98.347 5.48 98.634 6.39567 98.88 7.325C99.1533 8.227 99.3857 9.15633 99.577 10.113C99.6863 10.5777 99.782 11.056 99.864 11.548C99.9733 12.0127 100.069 12.4773 100.151 12.942C100.233 13.434 100.301 13.926 100.356 14.418C100.438 14.8827 100.506 15.3473 100.561 15.812C100.752 17.5613 100.889 19.2833 100.971 20.978C101.08 22.6727 101.108 24.3537 101.053 26.021C101.026 27.6883 100.971 29.2737 100.889 30.777C100.807 32.253 100.698 33.6607 100.561 35H91.91C91.91 34.9727 91.91 34.9453 91.91 34.918C91.91 34.8907 91.91 34.8633 91.91 34.836C91.91 34.8087 91.91 34.7677 91.91 34.713C91.91 34.6583 91.91 34.6173 91.91 34.59C91.91 34.5353 91.91 34.4807 91.91 34.426C91.91 34.344 91.9237 34.2757 91.951 34.221C91.951 34.1937 91.951 34.1663 91.951 34.139C91.951 34.057 91.951 33.975 91.951 33.893C91.951 33.7837 91.9647 33.6743 91.992 33.565C91.992 33.4557 91.992 33.3327 91.992 33.196C92.0193 33.0593 92.0467 32.909 92.074 32.745C92.074 32.6083 92.074 32.4853 92.074 32.376C92.1013 32.2667 92.1287 32.1573 92.156 32.048C92.156 31.9387 92.156 31.843 92.156 31.761C92.1833 31.6517 92.2107 31.5423 92.238 31.433C92.2107 31.4057 92.197 31.3783 92.197 31.351C92.197 31.3237 92.2107 31.2963 92.238 31.269C92.238 31.2417 92.238 31.228 92.238 31.228C92.238 31.2007 92.238 31.187 92.238 31.187C92.238 31.1597 92.238 31.1323 92.238 31.105C92.238 31.023 92.238 30.941 92.238 30.859C92.238 30.7497 92.2517 30.6403 92.279 30.531C92.279 30.449 92.279 30.3533 92.279 30.244C92.279 30.1073 92.2927 29.9843 92.32 29.875H83.751C83.997 29.3283 84.2567 28.7953 84.53 28.276C84.8033 27.7293 85.0767 27.1963 85.35 26.677C85.4867 26.4037 85.6233 26.144 85.76 25.898C85.8967 25.6247 86.0333 25.3513 86.17 25.078C86.3067 24.832 86.4433 24.586 86.58 24.34C86.744 24.0667 86.8943 23.7933 87.031 23.52H92.32C92.32 23.3287 92.3063 23.1373 92.279 22.946C92.279 22.7547 92.279 22.5633 92.279 22.372C92.279 22.208 92.2653 22.0303 92.238 21.839C92.238 21.6477 92.238 21.4563 92.238 21.265C92.2107 20.8823 92.1833 20.527 92.156 20.199C92.156 19.8437 92.1287 19.4883 92.074 19.133C92.0193 18.559 91.951 18.026 91.869 17.534C91.787 17.0147 91.705 16.55 91.623 16.14C91.5137 15.73 91.4317 15.3883 91.377 15.115C91.3497 14.8143 91.3223 14.6093 91.295 14.5C90.6663 15.3747 90.0377 16.2767 89.409 17.206C88.7803 18.108 88.179 19.0373 87.605 19.994C87.0037 20.9507 86.416 21.9073 85.842 22.864C85.268 23.8207 84.7213 24.7773 84.202 25.734C83.7647 26.5267 83.3273 27.3193 82.89 28.112C82.48 28.8773 82.0837 29.6563 81.701 30.449C81.3457 31.2143 80.9903 31.9797 80.635 32.745C80.2797 33.5103 79.9517 34.262 79.651 35H71C71.3827 34.1253 71.779 33.2507 72.189 32.376C72.6263 31.474 73.091 30.5583 73.583 29.629C74.0477 28.6997 74.526 27.7703 75.018 26.841C75.5373 25.8843 76.0567 24.9413 76.576 24.012C77.6147 22.1533 78.6807 20.3357 79.774 18.559C80.8673 16.755 82.0017 14.992 83.177 13.27C84.325 11.548 85.4457 9.96266 86.539 8.514C87.6597 7.06533 88.7393 5.75333 89.778 4.578ZM110.963 4.578H119.614L114.571 23.479C114.543 23.643 114.502 23.807 114.448 23.971C114.393 24.135 114.338 24.3127 114.284 24.504C114.256 24.6133 114.229 24.7227 114.202 24.832C114.202 24.914 114.188 24.996 114.161 25.078C114.161 25.1327 114.161 25.1873 114.161 25.242C114.161 25.2967 114.161 25.3513 114.161 25.406C114.133 25.4333 114.12 25.4743 114.12 25.529C114.12 25.5837 114.12 25.6383 114.12 25.693C114.092 26.103 114.12 26.4857 114.202 26.841C114.284 27.1963 114.42 27.538 114.612 27.866C114.83 28.194 115.145 28.44 115.555 28.604C115.992 28.768 116.552 28.85 117.236 28.85C117.892 28.85 118.466 28.768 118.958 28.604C119.477 28.44 119.914 28.194 120.27 27.866C120.652 27.538 120.98 27.1963 121.254 26.841C121.527 26.4857 121.759 26.103 121.951 25.693C122.005 25.5837 122.046 25.488 122.074 25.406C122.128 25.2967 122.183 25.1873 122.238 25.078C122.265 24.996 122.292 24.914 122.32 24.832C122.374 24.7227 122.415 24.6133 122.443 24.504C122.497 24.3127 122.552 24.135 122.607 23.971C122.689 23.807 122.743 23.643 122.771 23.479L127.814 4.578H136.465L131.463 23.274C131.381 23.5747 131.271 23.93 131.135 24.34C130.998 24.75 130.834 25.2283 130.643 25.775C130.451 26.2943 130.219 26.8273 129.946 27.374C129.672 27.9207 129.358 28.4673 129.003 29.014C128.456 29.8613 127.773 30.6677 126.953 31.433C126.133 32.171 125.203 32.8953 124.165 33.606C123.099 34.2893 121.828 34.795 120.352 35.123C118.903 35.451 117.249 35.615 115.391 35.615C113.477 35.615 111.865 35.4373 110.553 35.082C109.241 34.7267 108.243 34.1663 107.56 33.401C106.876 32.663 106.343 31.884 105.961 31.064C105.578 30.2167 105.359 29.342 105.305 28.44C105.277 27.9753 105.277 27.5107 105.305 27.046C105.332 26.554 105.387 26.0893 105.469 25.652C105.523 25.3513 105.578 25.0643 105.633 24.791C105.687 24.5177 105.742 24.258 105.797 24.012C105.824 23.8753 105.851 23.7523 105.879 23.643C105.906 23.5063 105.933 23.3833 105.961 23.274L110.963 4.578ZM138.776 4.578H161.941L160.137 11.384H152.88L146.566 35H137.915L144.229 11.384H136.972L138.776 4.578ZM159.212 19.789C159.922 17.1923 160.906 14.91 162.164 12.942C163.448 10.9467 165.02 9.27933 166.879 7.94C168.765 6.57333 170.733 5.562 172.783 4.906C174.86 4.22266 177.019 3.881 179.261 3.881C181.475 3.881 183.415 4.22266 185.083 4.906C186.777 5.562 188.199 6.57333 189.347 7.94C190.522 9.27933 191.233 10.9467 191.479 12.942C191.725 14.91 191.492 17.1923 190.782 19.789C190.098 22.3857 189.101 24.668 187.789 26.636C186.477 28.604 184.878 30.2713 182.992 31.638C181.133 32.9773 179.179 33.975 177.129 34.631C175.079 35.287 172.947 35.615 170.733 35.615C168.491 35.615 166.523 35.287 164.829 34.631C163.134 33.975 161.699 32.9773 160.524 31.638C159.376 30.2713 158.692 28.604 158.474 26.636C158.282 24.668 158.528 22.3857 159.212 19.789ZM168.109 19.789C167.781 20.9917 167.603 22.126 167.576 23.192C167.548 24.2307 167.685 25.201 167.986 26.103C168.286 27.005 168.806 27.6883 169.544 28.153C170.309 28.5903 171.32 28.809 172.578 28.809C173.808 28.809 174.928 28.5903 175.94 28.153C176.951 27.6883 177.839 27.005 178.605 26.103C179.37 25.201 180.026 24.2307 180.573 23.192C181.119 22.126 181.557 20.9917 181.885 19.789C182.185 18.5863 182.349 17.4657 182.377 16.427C182.404 15.361 182.267 14.377 181.967 13.475C181.693 12.573 181.174 11.9033 180.409 11.466C179.643 11.0013 178.646 10.769 177.416 10.769C176.158 10.769 175.024 11.0013 174.013 11.466C173.001 11.9033 172.113 12.573 171.348 13.475C170.582 14.377 169.926 15.361 169.38 16.427C168.833 17.4657 168.409 18.5863 168.109 19.789ZM206.812 4.578H215.053C215.381 5.48 215.668 6.39567 215.914 7.325C216.188 8.227 216.42 9.15633 216.611 10.113C216.721 10.5777 216.816 11.056 216.898 11.548C217.008 12.0127 217.103 12.4773 217.185 12.942C217.267 13.434 217.336 13.926 217.39 14.418C217.472 14.8827 217.541 15.3473 217.595 15.812C217.787 17.5613 217.923 19.2833 218.005 20.978C218.115 22.6727 218.142 24.3537 218.087 26.021C218.06 27.6883 218.005 29.2737 217.923 30.777C217.841 32.253 217.732 33.6607 217.595 35H208.944C208.944 34.9727 208.944 34.9453 208.944 34.918C208.944 34.8907 208.944 34.8633 208.944 34.836C208.944 34.8087 208.944 34.7677 208.944 34.713C208.944 34.6583 208.944 34.6173 208.944 34.59C208.944 34.5353 208.944 34.4807 208.944 34.426C208.944 34.344 208.958 34.2757 208.985 34.221C208.985 34.1937 208.985 34.1663 208.985 34.139C208.985 34.057 208.985 33.975 208.985 33.893C208.985 33.7837 208.999 33.6743 209.026 33.565C209.026 33.4557 209.026 33.3327 209.026 33.196C209.054 33.0593 209.081 32.909 209.108 32.745C209.108 32.6083 209.108 32.4853 209.108 32.376C209.136 32.2667 209.163 32.1573 209.19 32.048C209.19 31.9387 209.19 31.843 209.19 31.761C209.218 31.6517 209.245 31.5423 209.272 31.433C209.245 31.4057 209.231 31.3783 209.231 31.351C209.231 31.3237 209.245 31.2963 209.272 31.269C209.272 31.2417 209.272 31.228 209.272 31.228C209.272 31.2007 209.272 31.187 209.272 31.187C209.272 31.1597 209.272 31.1323 209.272 31.105C209.272 31.023 209.272 30.941 209.272 30.859C209.272 30.7497 209.286 30.6403 209.313 30.531C209.313 30.449 209.313 30.3533 209.313 30.244C209.313 30.1073 209.327 29.9843 209.354 29.875H200.785C201.031 29.3283 201.291 28.7953 201.564 28.276C201.838 27.7293 202.111 27.1963 202.384 26.677C202.521 26.4037 202.658 26.144 202.794 25.898C202.931 25.6247 203.068 25.3513 203.204 25.078C203.341 24.832 203.478 24.586 203.614 24.34C203.778 24.0667 203.929 23.7933 204.065 23.52H209.354C209.354 23.3287 209.341 23.1373 209.313 22.946C209.313 22.7547 209.313 22.5633 209.313 22.372C209.313 22.208 209.3 22.0303 209.272 21.839C209.272 21.6477 209.272 21.4563 209.272 21.265C209.245 20.8823 209.218 20.527 209.19 20.199C209.19 19.8437 209.163 19.4883 209.108 19.133C209.054 18.559 208.985 18.026 208.903 17.534C208.821 17.0147 208.739 16.55 208.657 16.14C208.548 15.73 208.466 15.3883 208.411 15.115C208.384 14.8143 208.357 14.6093 208.329 14.5C207.701 15.3747 207.072 16.2767 206.443 17.206C205.815 18.108 205.213 19.0373 204.639 19.994C204.038 20.9507 203.45 21.9073 202.876 22.864C202.302 23.8207 201.756 24.7773 201.236 25.734C200.799 26.5267 200.362 27.3193 199.924 28.112C199.514 28.8773 199.118 29.6563 198.735 30.449C198.38 31.2143 198.025 31.9797 197.669 32.745C197.314 33.5103 196.986 34.262 196.685 35H188.034C188.417 34.1253 188.813 33.2507 189.223 32.376C189.661 31.474 190.125 30.5583 190.617 29.629C191.082 28.6997 191.56 27.7703 192.052 26.841C192.572 25.8843 193.091 24.9413 193.61 24.012C194.649 22.1533 195.715 20.3357 196.808 18.559C197.902 16.755 199.036 14.992 200.211 13.27C201.359 11.548 202.48 9.96266 203.573 8.514C204.694 7.06533 205.774 5.75333 206.812 4.578ZM228.161 4.578H236.812L235.172 10.728C235.418 10.6733 235.678 10.5913 235.951 10.482C236.224 10.3727 236.498 10.2633 236.771 10.154C237.044 10.0173 237.331 9.89433 237.632 9.785C237.933 9.64833 238.233 9.498 238.534 9.334C238.835 9.19733 239.122 9.047 239.395 8.883C239.696 8.719 239.996 8.555 240.297 8.391C240.57 8.19967 240.857 8.00833 241.158 7.817C241.459 7.62567 241.746 7.43433 242.019 7.243C242.566 6.833 243.085 6.40933 243.577 5.972C244.096 5.53467 244.575 5.07 245.012 4.578H255.385C255.139 4.87867 254.879 5.193 254.606 5.521C254.36 5.849 254.087 6.177 253.786 6.505C253.622 6.669 253.458 6.833 253.294 6.997C253.13 7.161 252.966 7.325 252.802 7.489C252.638 7.68033 252.46 7.858 252.269 8.022C252.105 8.186 251.941 8.35 251.777 8.514C251.121 9.11533 250.424 9.71667 249.686 10.318C248.975 10.892 248.237 11.4523 247.472 11.999C246.679 12.573 245.9 13.0923 245.135 13.557C244.37 13.9943 243.618 14.3907 242.88 14.746C243.509 15.6753 244.069 16.6457 244.561 17.657C245.08 18.641 245.531 19.6797 245.914 20.773C246.297 21.8663 246.625 22.9597 246.898 24.053C247.199 25.1463 247.445 26.2533 247.636 27.374C247.745 28.03 247.827 28.686 247.882 29.342C247.937 29.9707 247.978 30.5993 248.005 31.228C248.06 31.884 248.087 32.5263 248.087 33.155C248.087 33.7563 248.06 34.3713 248.005 35H239.108C239.19 33.7153 239.19 32.4717 239.108 31.269C239.053 30.0663 238.876 28.9183 238.575 27.825C238.302 26.7043 237.987 25.6657 237.632 24.709C237.304 23.7523 236.935 22.8503 236.525 22.003C236.388 21.675 236.238 21.347 236.074 21.019C235.91 20.691 235.746 20.3903 235.582 20.117C235.5 19.9803 235.418 19.8437 235.336 19.707C235.254 19.5703 235.172 19.4337 235.09 19.297C234.981 19.1877 234.885 19.0647 234.803 18.928C234.721 18.7913 234.639 18.6683 234.557 18.559C234.42 18.6137 234.284 18.6683 234.147 18.723C234.038 18.7777 233.915 18.8323 233.778 18.887C233.723 18.9143 233.669 18.9417 233.614 18.969C233.587 18.969 233.546 18.9827 233.491 19.01C233.382 19.0373 233.272 19.0647 233.163 19.092C233.081 19.1193 232.999 19.1467 232.917 19.174L228.694 35H220.043L228.161 4.578ZM258.591 4.578H274.253C275.701 4.578 276.918 4.71466 277.902 4.988C278.913 5.234 279.692 5.61666 280.239 6.136C280.785 6.65533 281.223 7.202 281.551 7.776C281.906 8.32266 282.125 8.91033 282.207 9.539C282.234 9.81233 282.248 10.0857 282.248 10.359C282.275 10.605 282.275 10.851 282.248 11.097C282.22 11.343 282.179 11.589 282.125 11.835C282.097 12.0537 282.056 12.2723 282.002 12.491C281.783 13.2563 281.469 13.967 281.059 14.623C280.676 15.279 280.198 15.853 279.624 16.345C279.05 16.837 278.476 17.2743 277.902 17.657C277.328 18.0123 276.754 18.313 276.18 18.559C276.18 18.559 276.166 18.559 276.139 18.559C276.111 18.5863 276.098 18.6 276.098 18.6C276.07 18.6 276.057 18.6 276.057 18.6L276.016 18.682C277.054 19.092 277.874 19.584 278.476 20.158C279.077 20.7047 279.46 21.3333 279.624 22.044C279.815 22.7547 279.897 23.4927 279.87 24.258C279.87 24.996 279.76 25.7613 279.542 26.554C279.268 27.62 278.776 28.645 278.066 29.629C277.382 30.5857 276.508 31.5013 275.442 32.376C274.348 33.2507 273.023 33.9067 271.465 34.344C269.934 34.7813 268.157 35 266.135 35H250.473L258.591 4.578ZM264.126 22.29L265.807 15.935H268.964C269.046 15.935 269.128 15.935 269.21 15.935C269.292 15.935 269.374 15.935 269.456 15.935C269.51 15.935 269.551 15.935 269.579 15.935C269.633 15.935 269.688 15.9213 269.743 15.894C269.77 15.894 269.811 15.894 269.866 15.894C269.92 15.894 269.975 15.894 270.03 15.894C270.221 15.8667 270.399 15.8393 270.563 15.812C270.754 15.7847 270.945 15.7437 271.137 15.689C271.301 15.6343 271.465 15.566 271.629 15.484C271.82 15.402 272.011 15.32 272.203 15.238C272.531 15.074 272.818 14.828 273.064 14.5C273.31 14.172 273.487 13.7893 273.597 13.352C273.733 12.86 273.747 12.45 273.638 12.122C273.556 11.794 273.351 11.5617 273.023 11.425C272.667 11.2883 272.312 11.179 271.957 11.097C271.601 11.015 271.205 10.9603 270.768 10.933C270.713 10.933 270.658 10.933 270.604 10.933C270.549 10.933 270.494 10.933 270.44 10.933C270.385 10.933 270.33 10.933 270.276 10.933C270.221 10.933 270.166 10.933 270.112 10.933H265.561L260.805 28.645H265.561C266.217 28.645 266.804 28.604 267.324 28.522C267.843 28.4127 268.294 28.2623 268.677 28.071C269.032 27.8523 269.333 27.6473 269.579 27.456C269.852 27.2373 270.084 27.005 270.276 26.759C270.358 26.6497 270.426 26.5403 270.481 26.431C270.563 26.3217 270.631 26.2123 270.686 26.103C270.74 25.9937 270.781 25.898 270.809 25.816C270.836 25.7067 270.863 25.611 270.891 25.529C271.027 25.037 271.082 24.6133 271.055 24.258C271.027 23.8753 270.918 23.5747 270.727 23.356C270.535 23.1373 270.303 22.9597 270.03 22.823C269.784 22.659 269.524 22.536 269.251 22.454C269.059 22.3993 268.868 22.372 268.677 22.372C268.513 22.3447 268.349 22.331 268.185 22.331C268.103 22.331 268.021 22.331 267.939 22.331C267.857 22.331 267.775 22.3173 267.693 22.29C267.638 22.29 267.57 22.29 267.488 22.29C267.433 22.29 267.378 22.29 267.324 22.29C267.296 22.29 267.269 22.29 267.242 22.29C267.214 22.29 267.201 22.29 267.201 22.29H264.126Z" fill="black"/>
<path d="M91.1465 62.4363L92.6172 56.8582C93.0156 55.3386 94.3125 54.5769 96.5078 54.573H99.666C99.8105 54.573 99.9297 54.6277 100.023 54.7371C100.121 54.8464 100.17 54.9734 100.17 55.1179V62.4363C100.17 62.5886 100.115 62.7175 100.006 62.823C99.8965 62.9246 99.7656 62.9753 99.6133 62.9753H98.5117C98.3516 62.9753 98.2188 62.9246 98.1133 62.823C98.0117 62.7175 97.9609 62.5847 97.9609 62.4246V60.948H93.7949L93.4023 62.4246C93.3633 62.5847 93.2754 62.7175 93.1387 62.823C93.002 62.9246 92.8574 62.9753 92.7051 62.9753H91.5508C91.3984 62.9753 91.2891 62.9324 91.2227 62.8464C91.1562 62.7566 91.123 62.6785 91.123 62.6121C91.127 62.5457 91.1348 62.4871 91.1465 62.4363ZM94.2285 59.2898H97.9609V56.2312H96.291C95.916 56.2312 95.5879 56.3386 95.3066 56.5535C95.0293 56.7644 94.8418 57.0496 94.7441 57.4089L94.2285 59.2898ZM110.541 62.7175C110.541 62.8894 110.439 62.9753 110.236 62.9753H108.895C108.742 62.9753 108.578 62.9226 108.402 62.8171C108.227 62.7078 108.09 62.5769 107.992 62.4246L106.961 60.7898C106.715 60.3914 106.467 60.0925 106.217 59.8933C105.967 59.6902 105.666 59.5886 105.314 59.5886H104.055V62.4363C104.055 62.5886 104 62.7175 103.891 62.823C103.785 62.9246 103.656 62.9753 103.504 62.9753H102.402C102.25 62.9753 102.119 62.9207 102.01 62.8113C101.9 62.698 101.846 62.5652 101.846 62.4128V55.1296C101.846 54.9773 101.9 54.8445 102.01 54.7312C102.119 54.6179 102.25 54.5613 102.402 54.5613H103.504C103.656 54.5613 103.785 54.6179 103.891 54.7312C104 54.8445 104.055 54.9773 104.055 55.1296V57.9363H105.314C105.658 57.9363 105.959 57.8425 106.217 57.655C106.479 57.4675 106.727 57.1648 106.961 56.7468L107.869 55.1296C108.076 54.7546 108.357 54.5652 108.713 54.5613H110.066C110.254 54.5613 110.348 54.6433 110.348 54.8074C110.348 54.8972 110.314 55.0046 110.248 55.1296L108.977 57.4324C108.793 57.7683 108.586 58.0457 108.355 58.2644C108.129 58.4832 107.832 58.6375 107.465 58.7273C107.723 58.782 107.986 58.9441 108.256 59.2136C108.529 59.4832 108.77 59.7761 108.977 60.0925L110.441 62.4246C110.508 62.5378 110.541 62.6355 110.541 62.7175ZM120.08 62.7175C120.08 62.8894 119.979 62.9753 119.775 62.9753H118.434C118.281 62.9753 118.117 62.9226 117.941 62.8171C117.766 62.7078 117.629 62.5769 117.531 62.4246L116.5 60.7898C116.254 60.3914 116.006 60.0925 115.756 59.8933C115.506 59.6902 115.205 59.5886 114.854 59.5886H113.594V62.4363C113.594 62.5886 113.539 62.7175 113.43 62.823C113.324 62.9246 113.195 62.9753 113.043 62.9753H111.941C111.789 62.9753 111.658 62.9207 111.549 62.8113C111.439 62.698 111.385 62.5652 111.385 62.4128V55.1296C111.385 54.9773 111.439 54.8445 111.549 54.7312C111.658 54.6179 111.789 54.5613 111.941 54.5613H113.043C113.195 54.5613 113.324 54.6179 113.43 54.7312C113.539 54.8445 113.594 54.9773 113.594 55.1296V57.9363H114.854C115.197 57.9363 115.498 57.8425 115.756 57.655C116.018 57.4675 116.266 57.1648 116.5 56.7468L117.408 55.1296C117.615 54.7546 117.896 54.5652 118.252 54.5613H119.605C119.793 54.5613 119.887 54.6433 119.887 54.8074C119.887 54.8972 119.854 55.0046 119.787 55.1296L118.516 57.4324C118.332 57.7683 118.125 58.0457 117.895 58.2644C117.668 58.4832 117.371 58.6375 117.004 58.7273C117.262 58.782 117.525 58.9441 117.795 59.2136C118.068 59.4832 118.309 59.7761 118.516 60.0925L119.98 62.4246C120.047 62.5378 120.08 62.6355 120.08 62.7175ZM122.699 61.2117L123.684 61.3171H123.807C124.584 61.3171 125.115 60.8093 125.4 59.7937H124.896C123.912 59.7937 123.145 59.5945 122.594 59.196C122.043 58.7937 121.57 58.1414 121.176 57.239L120.256 55.1296C120.189 54.9734 120.188 54.8425 120.25 54.7371C120.316 54.6277 120.426 54.573 120.578 54.573H121.814C122.189 54.573 122.449 54.7507 122.594 55.1062L123.268 56.7351C123.467 57.2078 123.717 57.5613 124.018 57.7957C124.318 58.0261 124.715 58.1414 125.207 58.1414H125.928L126.988 55.1179C127.043 54.95 127.139 54.8171 127.275 54.7195C127.412 54.6218 127.561 54.573 127.721 54.573H128.904C129.057 54.573 129.162 54.616 129.221 54.7019C129.279 54.7839 129.309 54.8582 129.309 54.9246C129.309 54.9871 129.299 55.0476 129.279 55.1062L127.369 60.573C127.104 61.3425 126.703 61.9363 126.168 62.3542C125.633 62.7683 124.885 62.9753 123.924 62.9753H122.512C122.359 62.9753 122.229 62.9226 122.119 62.8171C122.01 62.7078 121.955 62.5769 121.955 62.4246V61.7625C121.955 61.6101 122.008 61.4812 122.113 61.3757C122.219 61.2664 122.352 61.2117 122.512 61.2117H122.699ZM130.275 62.4128V55.1414C130.275 54.9812 130.328 54.8464 130.434 54.7371C130.539 54.6277 130.668 54.573 130.82 54.573H133.205C133.357 54.573 133.502 54.6277 133.639 54.7371C133.775 54.8464 133.867 54.9773 133.914 55.1296L135.643 60.1335L137.371 55.1296C137.418 54.9773 137.51 54.8464 137.646 54.7371C137.783 54.6277 137.928 54.573 138.08 54.573H140.465C140.617 54.573 140.744 54.6277 140.846 54.7371C140.951 54.8464 141.004 54.9812 141.004 55.1414V62.4128C141.004 62.573 140.949 62.7078 140.84 62.8171C140.734 62.9226 140.605 62.9753 140.453 62.9753H139.398C139.246 62.9753 139.115 62.9226 139.006 62.8171C138.9 62.7078 138.848 62.573 138.848 62.4128V56.6882L136.779 62.448C136.725 62.5925 136.629 62.7175 136.492 62.823C136.355 62.9246 136.211 62.9753 136.059 62.9753H135.221C135.068 62.9753 134.924 62.9246 134.787 62.823C134.654 62.7175 134.559 62.5925 134.5 62.448L132.438 56.6882V62.4128C132.438 62.573 132.383 62.7078 132.273 62.8171C132.168 62.9226 132.039 62.9753 131.887 62.9753H130.832C130.68 62.9753 130.549 62.9226 130.439 62.8171C130.33 62.7078 130.275 62.573 130.275 62.4128ZM144.461 61.2117L145.445 61.3171H145.568C146.346 61.3171 146.877 60.8093 147.162 59.7937H146.658C145.674 59.7937 144.906 59.5945 144.355 59.196C143.805 58.7937 143.332 58.1414 142.938 57.239L142.018 55.1296C141.951 54.9734 141.949 54.8425 142.012 54.7371C142.078 54.6277 142.188 54.573 142.34 54.573H143.576C143.951 54.573 144.211 54.7507 144.355 55.1062L145.029 56.7351C145.229 57.2078 145.479 57.5613 145.779 57.7957C146.08 58.0261 146.477 58.1414 146.969 58.1414H147.689L148.75 55.1179C148.805 54.95 148.9 54.8171 149.037 54.7195C149.174 54.6218 149.322 54.573 149.482 54.573H150.666C150.818 54.573 150.924 54.616 150.982 54.7019C151.041 54.7839 151.07 54.8582 151.07 54.9246C151.07 54.9871 151.061 55.0476 151.041 55.1062L149.131 60.573C148.865 61.3425 148.465 61.9363 147.93 62.3542C147.395 62.7683 146.646 62.9753 145.686 62.9753H144.273C144.121 62.9753 143.99 62.9226 143.881 62.8171C143.771 62.7078 143.717 62.5769 143.717 62.4246V61.7625C143.717 61.6101 143.77 61.4812 143.875 61.3757C143.98 61.2664 144.113 61.2117 144.273 61.2117H144.461ZM150.994 62.4832L152.482 56.8582C152.881 55.3386 154.176 54.5769 156.367 54.573H159.297C159.434 54.573 159.549 54.6296 159.643 54.7429C159.74 54.8562 159.789 54.9851 159.789 55.1296V62.4246C159.789 62.5769 159.736 62.7078 159.631 62.8171C159.529 62.9226 159.402 62.9753 159.25 62.9753H158.131C157.979 62.9753 157.848 62.9226 157.738 62.8171C157.633 62.7078 157.58 62.5769 157.58 62.4246V56.2312H156.15C155.775 56.2312 155.447 56.3386 155.166 56.5535C154.889 56.7644 154.701 57.0496 154.604 57.4089L153.262 62.4246C153.223 62.5847 153.135 62.7175 152.998 62.823C152.861 62.9246 152.717 62.9753 152.564 62.9753H151.375C151.238 62.9753 151.137 62.9324 151.07 62.8464C151.008 62.7605 150.977 62.6882 150.977 62.6296C150.98 62.571 150.986 62.5222 150.994 62.4832ZM161.002 62.6414C161.002 62.5789 161.027 62.5066 161.078 62.4246L162.695 59.7585C161.59 59.2781 161.039 58.4617 161.043 57.3093C161.043 56.4382 161.344 55.7644 161.945 55.2878C162.551 54.8113 163.309 54.573 164.219 54.573H168.807C168.951 54.573 169.074 54.6257 169.176 54.7312C169.281 54.8367 169.334 54.9656 169.334 55.1179V62.4363C169.334 62.5886 169.279 62.7175 169.17 62.823C169.064 62.9246 168.936 62.9753 168.783 62.9753H167.676C167.523 62.9753 167.393 62.9226 167.283 62.8171C167.178 62.7078 167.125 62.5769 167.125 62.4246V59.9988H165.027L163.621 62.4363C163.422 62.7957 163.139 62.9753 162.771 62.9753H161.295C161.1 62.9753 161.002 62.864 161.002 62.6414ZM164.219 56.2312C163.57 56.2312 163.246 56.575 163.246 57.2625C163.246 57.95 163.57 58.2937 164.219 58.2937H167.125V56.2312H164.219ZM170.289 55.6804V55.1296C170.289 54.9695 170.342 54.8367 170.447 54.7312C170.553 54.6257 170.686 54.573 170.846 54.573H178.281C178.441 54.573 178.574 54.6257 178.68 54.7312C178.785 54.8367 178.838 54.9695 178.838 55.1296V55.6804C178.838 55.8406 178.785 55.9734 178.68 56.0789C178.574 56.1804 178.441 56.2312 178.281 56.2312H175.668V62.4363C175.668 62.5886 175.613 62.7175 175.504 62.823C175.398 62.9246 175.27 62.9753 175.117 62.9753H174.01C173.857 62.9753 173.727 62.9246 173.617 62.823C173.512 62.7175 173.459 62.5886 173.459 62.4363V56.2312H170.846C170.686 56.2312 170.553 56.1804 170.447 56.0789C170.342 55.9734 170.289 55.8406 170.289 55.6804ZM187.375 62.1082C186.578 62.8074 185.406 63.157 183.859 63.157C182.316 63.157 181.145 62.8074 180.344 62.1082C179.543 61.405 179.143 60.2937 179.143 58.7742C179.143 57.2546 179.543 56.1453 180.344 55.446C181.145 54.7468 182.316 54.3972 183.859 54.3972C185.406 54.3972 186.578 54.7468 187.375 55.446C188.176 56.1453 188.576 57.2546 188.576 58.7742C188.576 60.2937 188.176 61.405 187.375 62.1082ZM185.775 56.6824C185.381 56.2136 184.742 55.9792 183.859 55.9792C182.98 55.9792 182.342 56.2136 181.943 56.6824C181.549 57.1511 181.352 57.8503 181.352 58.78C181.352 59.7058 181.549 60.4031 181.943 60.8718C182.342 61.3367 182.98 61.5691 183.859 61.5691C184.742 61.5691 185.381 61.3367 185.775 60.8718C186.17 60.4031 186.367 59.7058 186.367 58.78C186.367 57.8503 186.17 57.1511 185.775 56.6824ZM189.783 62.4246V55.1296C189.783 54.9773 189.836 54.8464 189.941 54.7371C190.047 54.6277 190.176 54.573 190.328 54.573H194.799C197.162 54.573 198.344 55.6628 198.344 57.8425C198.344 60.0183 197.162 61.1062 194.799 61.1062H191.992V62.4246C191.992 62.5769 191.938 62.7078 191.828 62.8171C191.723 62.9226 191.594 62.9753 191.441 62.9753H190.34C190.188 62.9753 190.057 62.9226 189.947 62.8171C189.838 62.7078 189.783 62.5769 189.783 62.4246ZM191.992 59.448H194.131C194.787 59.448 195.285 59.3386 195.625 59.1199C195.965 58.8972 196.135 58.4714 196.135 57.8425C196.135 57.2097 195.965 56.7839 195.625 56.5652C195.285 56.3425 194.787 56.2312 194.131 56.2312H191.992V59.448ZM199.428 62.4128V55.1296C199.428 54.9695 199.48 54.8367 199.586 54.7312C199.691 54.6257 199.824 54.573 199.984 54.573H201.086C201.238 54.573 201.367 54.6277 201.473 54.7371C201.582 54.8464 201.637 54.9773 201.637 55.1296V57.4324H204.051C204.969 57.4324 205.73 57.6765 206.336 58.1648C206.941 58.6531 207.244 59.3328 207.244 60.2039C207.244 61.075 206.941 61.7546 206.336 62.2429C205.73 62.7312 204.969 62.9753 204.051 62.9753H199.955C199.814 62.9753 199.691 62.9207 199.586 62.8113C199.48 62.698 199.428 62.5652 199.428 62.4128ZM201.637 61.3171H204.051C204.707 61.3171 205.035 60.946 205.035 60.2039C205.035 59.4578 204.707 59.0847 204.051 59.0847H201.637V61.3171ZM208.416 62.4363V55.1296C208.416 54.9773 208.471 54.8464 208.58 54.7371C208.689 54.6277 208.82 54.573 208.973 54.573H210.086C210.246 54.573 210.379 54.6277 210.484 54.7371C210.594 54.8464 210.648 54.9773 210.648 55.1296V62.4246C210.648 62.5769 210.592 62.7078 210.479 62.8171C210.369 62.9226 210.238 62.9753 210.086 62.9753H208.973C208.82 62.9753 208.689 62.9246 208.58 62.823C208.471 62.7175 208.416 62.5886 208.416 62.4363ZM216.537 55.1296C216.537 54.9773 216.592 54.8464 216.701 54.7371C216.811 54.6277 216.941 54.573 217.094 54.573H221.857C223.025 54.573 223.887 54.9089 224.441 55.5808C224.75 55.9519 224.904 56.4265 224.904 57.0046C224.904 57.5789 224.641 58.0808 224.113 58.5105C224.863 58.9128 225.238 59.5378 225.238 60.3855C225.238 61.2332 224.938 61.8777 224.336 62.3191C223.738 62.7566 223.004 62.9753 222.133 62.9753H217.094C216.941 62.9753 216.811 62.9226 216.701 62.8171C216.592 62.7078 216.537 62.5769 216.537 62.4246V55.1296ZM218.746 61.3933H222.098C222.398 61.3933 222.629 61.3035 222.789 61.1238C222.949 60.9441 223.029 60.698 223.029 60.3855C223.029 60.073 222.949 59.8269 222.789 59.6472C222.629 59.4675 222.398 59.3777 222.098 59.3777H218.746V61.3933ZM218.746 57.8367H221.881C222.127 57.8367 222.324 57.7644 222.473 57.6199C222.621 57.4714 222.695 57.2664 222.695 57.0046C222.695 56.739 222.621 56.532 222.473 56.3835C222.324 56.2351 222.127 56.1609 221.881 56.1609H218.746V57.8367ZM231.25 61.9851C230.527 61.2937 230.166 60.2253 230.166 58.78C230.166 57.3308 230.527 56.2605 231.25 55.5691C231.977 54.8738 233.064 54.5261 234.514 54.5261H235.82C236.707 54.5261 237.49 54.7566 238.17 55.2175C238.854 55.6785 239.195 56.3093 239.195 57.1101C239.195 57.3406 239.127 57.5066 238.99 57.6082C238.854 57.7058 238.721 57.7546 238.592 57.7546H237.895C237.535 57.7546 237.256 57.5398 237.057 57.1101C236.768 56.4929 236.287 56.1843 235.615 56.1843H234.572C233.717 56.1843 233.137 56.3679 232.832 56.7351C232.527 57.1023 232.375 57.782 232.375 58.7742C232.375 59.7664 232.527 60.448 232.832 60.8191C233.137 61.1863 233.717 61.3699 234.572 61.3699H235.738C236.41 61.3699 236.889 61.0613 237.174 60.4441C237.373 60.0105 237.654 59.7937 238.018 59.7937H238.715C238.898 59.7937 239.043 59.8621 239.148 59.9988C239.258 60.1355 239.312 60.2839 239.312 60.4441C239.312 61.2449 238.973 61.8757 238.293 62.3367C237.613 62.7937 236.83 63.0222 235.943 63.0222H234.514C233.064 63.0222 231.977 62.6765 231.25 61.9851ZM240.455 62.4246V55.1296C240.455 54.9773 240.508 54.8464 240.613 54.7371C240.719 54.6277 240.848 54.573 241 54.573H248.605C248.758 54.573 248.887 54.6277 248.992 54.7371C249.102 54.8464 249.156 54.9773 249.156 55.1296V62.4246C249.156 62.5769 249.1 62.7078 248.986 62.8171C248.877 62.9226 248.746 62.9753 248.594 62.9753H247.504C247.352 62.9753 247.221 62.9226 247.111 62.8171C247.002 62.7078 246.947 62.5769 246.947 62.4246V56.2312H242.664V62.4246C242.664 62.5769 242.609 62.7078 242.5 62.8171C242.395 62.9226 242.266 62.9753 242.113 62.9753H241.012C240.859 62.9753 240.729 62.9226 240.619 62.8171C240.51 62.7078 240.455 62.5769 240.455 62.4246ZM250.838 62.4363V55.1296C250.838 54.9695 250.891 54.8367 250.996 54.7312C251.102 54.6257 251.234 54.573 251.395 54.573H257.992C258.145 54.573 258.273 54.6277 258.379 54.7371C258.488 54.8464 258.543 54.9773 258.543 55.1296V55.6804C258.543 55.8328 258.49 55.9636 258.385 56.073C258.283 56.1785 258.156 56.2312 258.004 56.2312H253.047V57.6492H255.941C256.891 57.6492 257.66 57.8738 258.25 58.323C258.84 58.7683 259.135 59.4324 259.135 60.3152C259.135 61.1941 258.84 61.8582 258.25 62.3074C257.66 62.7527 256.891 62.9753 255.941 62.9753H251.365C251.217 62.9753 251.092 62.9246 250.99 62.823C250.889 62.7175 250.838 62.5886 250.838 62.4363ZM253.047 61.3171H255.941C256.598 61.3171 256.926 60.9812 256.926 60.3093C256.926 59.6375 256.598 59.3015 255.941 59.3015H253.047V61.3171Z" fill="#6F6F6F"/>
<rect x="67" y="43" width="216" height="4" fill="url(#paint0_linear)"/>
<path d="M32.2103 39.7714L13.7404 47.414L27.2633 0.792908C12.0959 1.44916 3.05176e-05 14.0273 3.05176e-05 29.4355C3.05176e-05 44.5156 11.5794 56.8749 26.2711 58.0097L32.2103 39.7714Z" fill="url(#paint1_radial)"/>
<path d="M43.0286 4.77148V0L26.8555 35.2598L43.2597 28.834L22.3705 70L31.3269 57.9551C45.7332 56.5332 57 44.2969 57 29.4355C57 18.9355 51.387 9.76172 43.0286 4.77148Z" fill="#F61019"/>
<defs>
<linearGradient id="paint0_linear" x1="67" y1="46.9997" x2="283" y2="46.9997" gradientUnits="userSpaceOnUse">
<stop stop-color="white" stop-opacity="0"/>
<stop offset="0.510417" stop-color="#F61019"/>
<stop offset="1" stop-color="white" stop-opacity="0"/>
</linearGradient>
<radialGradient id="paint1_radial" cx="0" cy="0" r="1" gradientUnits="userSpaceOnUse" gradientTransform="translate(38.4548 -17.3281) scale(67.6904 68.094)">
<stop stop-color="#A81B1E"/>
<stop offset="1" stop-color="#E92629"/>
</radialGradient>
</defs>
</svg>
