<svg width="50" height="42" viewBox="0 0 50 42" fill="none" xmlns="http://www.w3.org/2000/svg">
<path d="M17.1111 8.67769H7.44444V2.90992C7.44444 1.30744 8.69444 0 10.2389 0H14.3167C15.8611 0 17.1111 1.30744 17.1111 2.90992V8.67769ZM10.7778 5.20661H13.7778V3.47107H10.7778V5.20661Z" fill="black"/>
<path d="M42.5556 8.67769H32.8889V2.90992C32.8889 1.30744 34.1389 0 35.6833 0H39.7222C41.2833 0 42.5556 1.32479 42.5556 2.95041V8.67769ZM36.2222 5.20661H39.2222V3.47107H36.2222V5.20661Z" fill="black"/>
<path d="M15.3333 11.9174H12V21.2893H15.3333V11.9174Z" fill="black"/>
<path d="M18.1667 14.8678H9.16667V18.3388H18.1667V14.8678Z" fill="black"/>
<path d="M40.8333 14.8678H31.8333V18.3388H40.8333V14.8678Z" fill="black"/>
<path d="M46.4722 42H3.52778C1.58333 42 0 40.3512 0 38.3264V8.88017C0 6.85537 1.58333 5.20661 3.52778 5.20661H46.4722C48.4167 5.20661 50 6.85537 50 8.88017V38.3322C50 40.357 48.4167 42 46.4722 42ZM3.52778 8.67769C3.42222 8.67769 3.33333 8.77025 3.33333 8.88017V38.3322C3.33333 38.4421 3.42222 38.5347 3.52778 38.5347H46.4722C46.5778 38.5347 46.6667 38.4421 46.6667 38.3322V8.88017C46.6667 8.77025 46.5778 8.67769 46.4722 8.67769H3.52778Z" fill="black"/>
</svg>
