<svg width="50" height="45" viewBox="0 0 50 45" fill="none" xmlns="http://www.w3.org/2000/svg">
<path d="M7.49705 45H42.4802C48.2376 45 51.8565 38.75 49.0052 33.8587L31.4589 3.75C28.6076 -1.25 21.3697 -1.25 18.5184 3.75L0.971989 33.8587C-1.82447 38.8043 1.73964 45 7.49705 45ZM25.0434 38.3152C23.5081 38.3152 22.247 37.0652 22.247 35.5435C22.247 34.0217 23.5081 32.7717 25.0434 32.7717C26.5788 32.7717 27.8399 34.0217 27.7851 35.5978C27.8399 37.0652 26.5239 38.3152 25.0434 38.3152ZM24.3306 13.3152C25.6466 12.9891 27.0174 13.6413 27.5657 14.8913C27.7302 15.3261 27.8399 15.7609 27.8399 16.25C27.7851 17.6087 27.6754 19.0217 27.5657 20.3804C27.4561 22.5 27.2916 24.6739 27.1819 26.7935C27.1271 27.5 27.1271 28.0978 27.1271 28.8043C27.0723 29.9457 26.1949 30.8152 25.0434 30.8152C23.892 30.8152 23.0146 30 22.9598 28.8587C22.7953 25.5435 22.576 22.2283 22.4115 18.913C22.3567 18.0435 22.3018 17.1739 22.247 16.25C22.1922 14.8913 23.0146 13.6957 24.3306 13.3152Z" fill="black"/>
</svg>
