<svg width="31" height="50" viewBox="0 0 31 50" fill="none" xmlns="http://www.w3.org/2000/svg">
<path d="M25.5437 -2.38503e-07C26.9448 -1.77258e-07 28.292 0.526177 29.3698 1.52591C31.4715 3.57801 31.4715 6.94554 29.3698 8.99763L13.0413 24.9934L29.4237 40.9892C31.5254 43.0413 31.5254 46.4088 29.4237 48.4609C27.322 50.513 23.8731 50.513 21.7714 48.4609L1.56279 28.7293C0.538892 27.7295 -1.1546e-06 26.4141 -1.0925e-06 24.9934C-1.0304e-06 23.5727 0.592782 22.2573 1.56279 21.2576L21.7175 1.52591C22.7953 0.526177 24.1964 -2.97393e-07 25.5437 -2.38503e-07Z" fill="black"/>
</svg>
