<svg width="50" height="26" viewBox="0 0 50 26" fill="none" xmlns="http://www.w3.org/2000/svg">
<path d="M0 25.9319V0.0674032C0 0.0303316 0.0294754 0 0.0655012 0H1.0572C1.09322 0 1.1227 0.0303316 1.1227 0.0674032V25.9319C1.1227 25.9697 1.09322 25.9993 1.0572 25.9993H0.0655012C0.0294754 25.9987 0 25.969 0 25.9319ZM1.96898 25.9319V0.0674032C1.96898 0.0303316 1.99845 0 2.03448 0H2.27029C2.30631 0 2.33579 0.0303316 2.33579 0.0674032V25.9319C2.33579 25.9697 2.30631 25.9993 2.27029 25.9993H2.03448C1.99845 25.9987 1.96898 25.969 1.96898 25.9319ZM3.86394 25.9319V0.0674032C3.86394 0.0303316 3.89342 0 3.92944 0H5.4969C5.53292 0 5.5624 0.0303316 5.5624 0.0674032V25.9319C5.5624 25.9697 5.53292 25.9993 5.4969 25.9993H3.92944C3.89342 25.9987 3.86394 25.969 3.86394 25.9319ZM6.9923 25.9319V0.0674032C6.9923 0.0303316 7.02177 0 7.0578 0H9.31695C9.35297 0 9.38245 0.0303316 9.38245 0.0674032V25.9319C9.38245 25.9697 9.35297 25.9993 9.31695 25.9993H7.0578C7.02177 25.9987 6.9923 25.969 6.9923 25.9319ZM10.2595 25.9319V0.0674032C10.2595 0.0303316 10.289 0 10.325 0H10.5228C10.5589 0 10.5883 0.0303316 10.5883 0.0674032V25.9319C10.5883 25.9697 10.5589 25.9993 10.5228 25.9993H10.325C10.2883 25.9987 10.2595 25.969 10.2595 25.9319ZM11.3881 25.9319V0.0674032C11.3881 0.0303316 11.4176 0 11.4536 0H13.1128C13.1488 0 13.1783 0.0303316 13.1783 0.0674032V25.9319C13.1783 25.9697 13.1488 25.9993 13.1128 25.9993H11.4536C11.4176 25.9987 11.3881 25.969 11.3881 25.9319ZM14.035 25.9319V0.0674032C14.035 0.0303316 14.0645 0 14.1005 0H14.335C14.3711 0 14.4005 0.0303316 14.4005 0.0674032V25.9319C14.4005 25.9697 14.3711 25.9993 14.335 25.9993H14.1005C14.0645 25.9987 14.035 25.969 14.035 25.9319ZM15.2514 25.9319V0.0674032C15.2514 0.0303316 15.2809 0 15.3169 0H16.321C16.3571 0 16.3865 0.0303316 16.3865 0.0674032V25.9319C16.3865 25.9697 16.3571 25.9993 16.321 25.9993H15.3169C15.2809 25.9987 15.2514 25.969 15.2514 25.9319ZM17.8819 25.9319V0.0674032C17.8819 0.0303316 17.9114 0 17.9474 0H19.4265C19.4625 0 19.492 0.0303316 19.492 0.0674032V25.9319C19.492 25.9697 19.4625 25.9993 19.4265 25.9993H17.9474C17.9114 25.9987 17.8819 25.969 17.8819 25.9319ZM21.0129 25.9319V0.0674032C21.0129 0.0303316 21.0424 0 21.0784 0H21.2978C21.3339 0 21.3633 0.0303316 21.3633 0.0674032V25.9319C21.3633 25.9697 21.3339 25.9993 21.2978 25.9993H21.0784C21.0417 25.9987 21.0129 25.969 21.0129 25.9319ZM23.5996 25.9319V0.0674032C23.5996 0.0303316 23.6291 0 23.6651 0H23.9179C23.9539 0 23.9834 0.0303316 23.9834 0.0674032V25.9319C23.9834 25.9697 23.9539 25.9993 23.9179 25.9993H23.6651C23.6291 25.9987 23.5996 25.969 23.5996 25.9319ZM24.7721 25.9319V0.0674032C24.7721 0.0303316 24.8015 0 24.8376 0H25.8476C25.8843 0 25.9131 0.0303316 25.9131 0.0674032V25.9319C25.9131 25.9697 25.8843 25.9993 25.8476 25.9993H24.8376C24.8015 25.9987 24.7721 25.969 24.7721 25.9319ZM27.9672 25.9319V0.0674032C27.9672 0.0303316 27.996 0 28.0327 0H29.6565C29.6932 0 29.722 0.0303316 29.722 0.0674032V25.9319C29.722 25.9697 29.6932 25.9993 29.6565 25.9993H28.0327C27.996 25.9987 27.9672 25.969 27.9672 25.9319ZM31.7866 25.9319V0.0674032C31.7866 0.0303316 31.8154 0 31.8521 0H32.0873C32.124 0 32.1528 0.0303316 32.1528 0.0674032V25.9326C32.1528 25.9703 32.124 26 32.0873 26H31.8521C31.8154 25.9987 31.7866 25.969 31.7866 25.9319ZM33.0259 25.9319V0.0674032C33.0259 0.0303316 33.0547 0 33.0914 0H34.0674C34.1041 0 34.1329 0.0303316 34.1329 0.0674032V25.9319C34.1329 25.9697 34.1041 25.9993 34.0674 25.9993H33.0914C33.0547 25.9987 33.0259 25.969 33.0259 25.9319ZM35.0316 25.9319V0.0674032C35.0316 0.0303316 35.0604 0 35.0971 0H35.3263C35.363 0 35.3918 0.0303316 35.3918 0.0674032V25.9326C35.3918 25.9703 35.363 26 35.3263 26H35.0971C35.0604 25.9987 35.0316 25.969 35.0316 25.9319ZM36.1569 25.9319V0.0674032C36.1569 0.0303316 36.1857 0 36.2224 0H37.2979C37.3346 0 37.3634 0.0303316 37.3634 0.0674032V25.9319C37.3634 25.9697 37.3346 25.9993 37.2979 25.9993H36.2224C36.1857 25.9987 36.1569 25.969 36.1569 25.9319ZM38.065 25.9319V0.0674032C38.065 0.0303316 38.0938 0 38.1305 0H39.749C39.7857 0 39.8145 0.0303316 39.8145 0.0674032V25.9319C39.8145 25.9697 39.7857 25.9993 39.749 25.9993H38.1305C38.0938 25.9987 38.065 25.969 38.065 25.9319ZM41.9531 25.9319V0.0674032C41.9531 0.0303316 41.9819 0 42.0186 0H43.0123C43.049 0 43.0778 0.0303316 43.0778 0.0674032V25.9319C43.0778 25.9697 43.049 25.9993 43.0123 25.9993H42.0186C41.9819 25.9987 41.9531 25.969 41.9531 25.9319ZM45.0723 25.9319V0.0674032C45.0723 0.0303316 45.1011 0 45.1378 0H46.7754C46.812 0 46.8409 0.0303316 46.8409 0.0674032V25.9319C46.8409 25.9697 46.812 25.9993 46.7754 25.9993H45.1378C45.1011 25.9987 45.0723 25.969 45.0723 25.9319ZM47.7061 25.9319V0.0674032C47.7061 0.0303316 47.735 0 47.7716 0H48.0074C48.0441 0 48.0729 0.0303316 48.0729 0.0674032V25.9319C48.0729 25.9697 48.0441 25.9993 48.0074 25.9993H47.7716C47.735 25.9987 47.7061 25.969 47.7061 25.9319ZM50 25.9319C50 25.9697 49.9712 25.9993 49.9345 25.9993H48.9087C48.8721 25.9993 48.8426 25.9697 48.8426 25.9319C48.8426 25.9312 48.8432 25.9312 48.8432 25.9306V0.0674032C48.8432 0.0303316 48.8721 0 48.9087 0H49.9345C49.9712 0 50 0.0303316 50 0.0674032V25.9319Z" fill="black"/>
</svg>
