<svg width="42" height="49" viewBox="0 0 42 49" fill="none" xmlns="http://www.w3.org/2000/svg">
<path d="M11.5 15.8462V12.3846C11.5 9.63044 12.5009 6.98908 14.2825 5.04158C16.0641 3.09409 18.4804 2 21 2V2C23.5196 2 25.9359 3.09409 27.7175 5.04158C29.4991 6.98908 30.5 9.63044 30.5 12.3846V15.8462M3.58333 15.8462C3.16341 15.8462 2.76068 16.0285 2.46375 16.3531C2.16682 16.6777 2 17.1179 2 17.5769V40.9423C2 44.2135 4.54917 47 7.54167 47H34.4583C37.4508 47 40 44.3487 40 41.0775V17.5769C40 17.1179 39.8332 16.6777 39.5363 16.3531C39.2393 16.0285 38.8366 15.8462 38.4167 15.8462H3.58333Z" stroke="black" stroke-width="3.5" stroke-linecap="round" stroke-linejoin="round"/>
</svg>
