<svg width="44" height="50" viewBox="0 0 44 50" fill="none" xmlns="http://www.w3.org/2000/svg">
<path fill-rule="evenodd" clip-rule="evenodd" d="M41.0667 41.9118L4.4036 41.9118C1.97066 41.9118 -2.93482e-06 39.9354 -2.72139e-06 37.494L-5.36865e-07 12.506C-3.23706e-07 10.0677 1.97491 8.08823 4.4036 8.08823L41.0667 8.08824L41.0667 1.47059C41.0667 0.658409 41.7233 3.61566e-06 42.5333 3.68648e-06C43.3434 3.75729e-06 44 0.658409 44 1.47059L44 48.5294C44 49.3416 43.3434 50 42.5333 50C41.7233 50 41.0667 49.3416 41.0667 48.5294L41.0667 41.9118ZM41.0667 25.7353L41.0667 11.0294L4.4036 11.0294C3.59471 11.0294 2.93333 11.6923 2.93333 12.506L2.93333 25.7353L41.0667 25.7353ZM41.0667 38.9706L41.0667 33.0882L2.93333 33.0882L2.93333 37.494C2.93333 38.3111 3.59085 38.9706 4.4036 38.9706L41.0667 38.9706ZM7.33333 16.9118C6.52331 16.9118 5.86666 16.2534 5.86666 15.4412C5.86666 14.629 6.52331 13.9706 7.33333 13.9706L13.2 13.9706C14.01 13.9706 14.6667 14.629 14.6667 15.4412C14.6667 16.2534 14.01 16.9118 13.2 16.9118L7.33333 16.9118ZM19.0667 16.9118C18.2567 16.9118 17.6 16.2534 17.6 15.4412C17.6 14.629 18.2567 13.9706 19.0667 13.9706L24.9333 13.9706C25.7434 13.9706 26.4 14.629 26.4 15.4412C26.4 16.2534 25.7434 16.9118 24.9333 16.9118L19.0667 16.9118Z" fill="black"/>
</svg>
