<svg width="50" height="39" viewBox="0 0 50 39" fill="none" xmlns="http://www.w3.org/2000/svg">
<path d="M1.49307 0C0.67983 0.0879966 -0.00435214 0.876445 2.08475e-05 1.72059V31.5441C0.000114014 32.445 0.794049 33.2646 1.66668 33.2647H4.65279C5.41111 36.54 8.27002 39 11.6667 39C15.0633 39 17.9248 36.54 18.6805 33.2647H31.3194C32.0751 36.54 34.9366 39 38.3333 39C41.7299 39 44.5888 36.54 45.3471 33.2647H48.3332C49.2059 33.2646 49.9998 32.445 49.9999 31.5441V18.9265C50.0022 18.7 49.9606 18.4733 49.8784 18.2633L45.9895 8.51333C45.7369 7.88915 45.0996 7.45299 44.4444 7.45588H35.5555V1.72059C35.5554 0.819717 34.7615 9.17647e-05 33.8888 0C23.0945 0 12.2748 0 1.49307 0ZM3.33335 3.44118H32.2222V27.6011C31.8116 28.2764 31.5041 29.0282 31.3194 29.8235H18.6805C17.9207 26.5513 15.0593 24.0882 11.6667 24.0882C8.27407 24.0882 5.41524 26.5513 4.65279 29.8235H3.33335V3.44118ZM35.5555 10.8971H43.3333L46.6666 19.267V29.8235H45.3471C44.5847 26.5513 41.7259 24.0882 38.3333 24.0882C37.3546 24.0882 36.4082 24.2924 35.5555 24.6618V10.8971ZM37.6041 18.3529C36.7314 18.4 35.9788 19.2623 36.0242 20.1631C36.0697 21.064 36.905 21.841 37.7777 21.7941H39.9999C40.8801 21.8062 41.6891 20.9822 41.6891 20.0735C41.6891 19.1648 40.8801 18.3407 39.9999 18.3529H37.7777C37.7199 18.3472 37.6619 18.3472 37.6041 18.3529ZM11.6667 27.5294C13.8342 27.5294 15.5555 29.3064 15.5555 31.5441C15.5555 33.7817 13.8342 35.5588 11.6667 35.5588C9.49915 35.5588 7.77778 33.7817 7.77778 31.5441C7.77778 29.3064 9.49915 27.5294 11.6667 27.5294ZM38.3333 27.5294C40.5008 27.5294 42.2222 29.3064 42.2222 31.5441C42.2222 33.7817 40.5008 35.5588 38.3333 35.5588C36.1658 35.5588 34.4444 33.7817 34.4444 31.5441C34.4444 29.3064 36.1658 27.5294 38.3333 27.5294Z" fill="black"/>
</svg>
