<svg width="50" height="46" viewBox="0 0 50 46" fill="none" xmlns="http://www.w3.org/2000/svg">
<path d="M1.66668 0C0.746172 0 0 0.753474 0 1.68293C0 2.61238 0.746172 3.36585 1.66668 3.36585H7.20494C9.96341 10.2644 12.6805 17.1757 15.4168 24.0869L12.8994 30.205C12.6885 30.7151 12.7479 31.3302 13.0523 31.7896C13.3567 32.2489 13.8972 32.5389 14.4446 32.5366H42.2225C43.1031 32.5489 43.913 31.7429 43.913 30.8537C43.913 29.9645 43.1031 29.1582 42.2225 29.1707H16.9446L18.3856 25.6997L45.1392 23.5434C45.8395 23.4879 46.4734 22.9371 46.6323 22.2462L49.9657 7.66082C50.1837 6.67842 49.3307 5.60647 48.3337 5.60975H11.6841L9.87852 1.05183C9.6313 0.434857 8.99251 1.68293e-05 8.3334 0H1.66668ZM13.0209 8.9756H46.233L43.6462 20.3003L18.3161 22.3338L13.0209 8.9756ZM20.0002 34.7805C16.9516 34.7805 14.4446 37.312 14.4446 40.3902C14.4446 43.4685 16.9516 46 20.0002 46C23.0487 46 25.5558 43.4685 25.5558 40.3902C25.5558 37.312 23.0487 34.7805 20.0002 34.7805ZM36.667 34.7805C33.6184 34.7805 31.1114 37.312 31.1114 40.3902C31.1114 43.4685 33.6184 46 36.667 46C39.7155 46 42.2225 43.4685 42.2225 40.3902C42.2225 37.312 39.7155 34.7805 36.667 34.7805ZM20.0002 38.1463C21.2472 38.1463 22.2224 39.131 22.2224 40.3902C22.2224 41.6495 21.2472 42.6341 20.0002 42.6341C18.7532 42.6341 17.7779 41.6494 17.7779 40.3902C17.7779 39.1311 18.7532 38.1463 20.0002 38.1463ZM36.667 38.1463C37.9139 38.1463 38.8892 39.1311 38.8892 40.3902C38.8892 41.6494 37.9139 42.6341 36.667 42.6341C35.4199 42.6341 34.4447 41.6495 34.4447 40.3902C34.4447 39.131 35.4199 38.1463 36.667 38.1463Z" fill="black"/>
</svg>
