<svg width="50" height="50" viewBox="0 0 50 50" fill="none" xmlns="http://www.w3.org/2000/svg">
<path d="M33.6326 18.515C33.2436 18.1261 32.7199 17.9067 32.1714 17.9067C31.6228 17.9067 31.0991 18.1211 30.7102 18.515L22.0676 27.1118L19.2998 24.3243C18.5019 23.5265 17.1903 23.5165 16.3824 24.3094C15.5695 25.1022 15.5595 26.4137 16.3575 27.2315L20.5865 31.49C20.9755 31.8789 21.4991 32.0983 22.0527 32.0983C22.6012 32.0983 23.1199 31.8839 23.5089 31.495L33.6226 21.4421C34.4205 20.6443 34.4305 19.3328 33.6375 18.525L33.6326 18.515Z" fill="black"/>
<path d="M48.0351 15.2787C46.7734 12.3018 44.9681 9.629 42.674 7.33021C40.375 5.0364 37.702 3.23128 34.7247 1.96968C31.6427 0.663209 28.3712 0 25 0C11.2158 0.00498654 0 11.2197 0 25.0025C0 38.7853 11.2158 50 25 50C38.7842 50 50 38.7853 50 25.0025C50 21.6316 49.3417 18.3604 48.0351 15.2787ZM25 45.8662C13.4949 45.8662 4.13425 36.5064 4.13425 25.0025C4.13425 13.4986 13.4949 4.13882 25 4.13882C36.5051 4.13882 45.8658 13.4986 45.8658 25.0025C45.8658 36.5064 36.5051 45.8662 25 45.8662Z" fill="black"/>
</svg>
