<svg width="50" height="50" viewBox="0 0 50 50" fill="none" xmlns="http://www.w3.org/2000/svg">
<path d="M26.8 8.57143C26.8 7.57732 25.9941 6.77143 25 6.77143C24.0059 6.77143 23.2 7.57732 23.2 8.57143H26.8ZM25 26.6429H23.2C23.2 27.637 24.0059 28.4429 25 28.4429V26.6429ZM36.5 28.4429C37.4941 28.4429 38.3 27.637 38.3 26.6429C38.3 25.6487 37.4941 24.8429 36.5 24.8429V28.4429ZM25 0.2C11.308 0.2 0.2 11.308 0.2 25H3.8C3.8 13.2962 13.2962 3.8 25 3.8V0.2ZM0.2 25C0.2 38.692 11.308 49.8 25 49.8V46.2C13.2962 46.2 3.8 36.7038 3.8 25H0.2ZM25 49.8C38.692 49.8 49.8 38.692 49.8 25H46.2C46.2 36.7038 36.7038 46.2 25 46.2V49.8ZM49.8 25C49.8 11.308 38.692 0.2 25 0.2V3.8C36.7038 3.8 46.2 13.2962 46.2 25H49.8ZM23.2 8.57143V26.6429H26.8V8.57143H23.2ZM25 28.4429H36.5V24.8429H25V28.4429Z" fill="black"/>
</svg>
