<svg width="50" height="50" viewBox="0 0 50 50" fill="none" xmlns="http://www.w3.org/2000/svg">
<path fill-rule="evenodd" clip-rule="evenodd" d="M24.4392 21.8011C24.7489 22.1108 25.2548 22.1071 25.5608 21.8011L47.1266 0.23534C47.4363 -0.0743902 47.9309 -0.0820211 48.2469 0.233991L49.766 1.75313C50.075 2.06211 50.0707 2.56739 49.7647 2.87341L28.1989 24.4392C27.8892 24.7489 27.8929 25.2548 28.1989 25.5608L49.7647 47.1266C50.0744 47.4363 50.082 47.9309 49.766 48.2469L48.2469 49.766C47.9379 50.075 47.4326 50.0707 47.1266 49.7647L25.5608 28.1989C25.2511 27.8892 24.7452 27.8929 24.4392 28.1989L2.87341 49.7647C2.56368 50.0744 2.06914 50.082 1.75313 49.766L0.233991 48.2469C-0.074994 47.9379 -0.0706856 47.4326 0.23534 47.1266L21.8011 25.5608C22.1108 25.2511 22.1071 24.7452 21.8011 24.4392L0.23534 2.87341C-0.0743902 2.56368 -0.0820211 2.06914 0.233991 1.75313L1.75313 0.233991C2.06211 -0.074994 2.56739 -0.0706856 2.87341 0.23534L24.4392 21.8011Z" fill="black"/>
</svg>
