<svg width="50" height="50" viewBox="0 0 50 50" fill="none" xmlns="http://www.w3.org/2000/svg">
<path d="M43.0557 12.5C42.5913 12.5 42.1574 12.7322 41.9002 13.1183L36.3446 21.4517C36.0607 21.8778 36.034 22.4256 36.2757 22.8772C36.5174 23.3289 36.9879 23.6106 37.5001 23.6106H48.6113C49.1235 23.6106 49.5941 23.3289 49.8357 22.8772C50.0774 22.4256 50.0507 21.8778 49.7668 21.4517L44.2113 13.1183C43.954 12.7322 43.5202 12.5 43.0557 12.5ZM40.0951 20.8333L43.0557 16.3928L46.0163 20.8333H40.0951Z" fill="black"/>
<path d="M48.6113 26.3889H37.5001C36.9879 26.3889 36.5174 26.6706 36.2757 27.1222C36.034 27.5739 36.0607 28.1217 36.3446 28.5478L41.9002 36.8811C42.1574 37.2672 42.5913 37.4994 43.0557 37.4994C43.5202 37.4994 43.954 37.2672 44.2113 36.8811L49.7668 28.5478C50.0507 28.1217 50.0774 27.5739 49.8357 27.1222C49.5941 26.6706 49.1235 26.3889 48.6113 26.3889ZM43.0557 33.6072L40.0951 29.1667H46.0157L43.0557 33.6072Z" fill="black"/>
<path d="M1.38889 50H31.9446C32.7118 50 33.3335 49.3783 33.3335 48.6111V1.38889C33.3335 0.621667 32.7118 0 31.9446 0H1.38889C0.621669 0 0 0.621667 0 1.38889V48.6111C0 49.3783 0.621669 50 1.38889 50ZM18.0556 2.77778H30.5557V47.2222H18.0556V2.77778ZM2.77779 2.77778H15.2778V47.2222H2.77779V2.77778Z" fill="black"/>
</svg>
