<svg width="50" height="45" viewBox="0 0 50 45" fill="none" xmlns="http://www.w3.org/2000/svg">
<path d="M48.3617 41.6769H28.3046L39.4044 30.1382L39.4257 30.116L39.447 30.0938L48.5387 20.6389C49.477 19.6465 50.002 18.3098 50 16.9179C49.998 15.526 49.4692 14.1909 48.528 13.2014L37.3153 1.5518C36.8495 1.062 36.2952 0.672762 35.6842 0.406452C35.0733 0.140142 34.4178 0.00201264 33.7554 2.46731e-06H33.7404C33.0745 -0.000670061 32.415 0.13615 31.8002 0.40253C31.1855 0.66891 30.6277 1.05955 30.1592 1.5518L21.0569 11.0178L1.48153 31.3685C0.532832 32.3569 0 33.6964 0 35.0929C0 36.4894 0.532832 37.8288 1.48153 38.8172L6.95998 44.5145C6.97171 44.5267 6.98769 44.53 6.99942 44.5411C7.1401 44.6819 7.30449 44.7947 7.48438 44.8736L7.51422 44.8825C7.69875 44.959 7.89541 44.9988 8.09404 45H24.4175C24.426 45 24.4324 45 24.4399 45C24.4473 45 24.4548 45 24.4633 45H48.3617C48.7857 45 49.1924 44.8248 49.4922 44.513C49.7921 44.2012 49.9605 43.7783 49.9605 43.3374C49.9605 42.8964 49.7921 42.4735 49.4922 42.1617C49.1924 41.8499 48.7857 41.6747 48.3617 41.6747V41.6769ZM3.19754 35.0929C3.19724 34.8396 3.24511 34.5887 3.3384 34.3547C3.43169 34.1207 3.56856 33.9083 3.74113 33.7295L22.1909 14.5426L36.0363 28.9411L23.7844 41.6769H8.74741L3.73793 36.4607C3.56461 36.2817 3.4275 36.0685 3.33469 35.8336C3.24188 35.5987 3.19524 35.3468 3.19754 35.0929V35.0929Z" fill="black"/>
</svg>
