<svg width="50" height="25" viewBox="0 0 50 25" fill="none" xmlns="http://www.w3.org/2000/svg">
<path fill-rule="evenodd" clip-rule="evenodd" d="M49 11.3956C48.5263 10.9438 38.1579 0 25 0C11.8421 0 1.47368 10.9438 1 11.4458L0 12.5L1 13.6044C1.47368 14.0562 11.8421 25 25 25C38.1579 25 48.5263 14.0562 49 13.5542L50 12.4498L49 11.3956ZM25 21.8373C19.6316 21.8373 15.2105 17.6707 15.2105 12.5C15.2105 7.37952 19.5789 3.16265 25 3.16265C30.3684 3.16265 34.7895 7.32932 34.7895 12.5C34.7895 17.6205 30.3684 21.8373 25 21.8373Z" fill="black"/>
<path fill-rule="evenodd" clip-rule="evenodd" d="M25 6.67671C24.5263 6.67671 24.1053 6.72691 23.6316 6.82731C24.2632 7.27912 24.6316 7.93173 24.6316 8.73494C24.6316 10.0402 23.5263 11.1446 22.1053 11.1446C21 11.1446 20.0526 10.4418 19.7368 9.53815C19.2105 10.3916 18.8421 11.3956 18.8421 12.5C18.8421 15.7129 21.5789 18.3233 24.9474 18.3233C28.3158 18.3233 31.0526 15.7129 31.0526 12.5C31.1053 9.28715 28.3684 6.67671 25 6.67671Z" fill="black"/>
</svg>
