<svg width="46" height="50" viewBox="0 0 46 50" fill="none" xmlns="http://www.w3.org/2000/svg">
<path d="M4.38095 0C1.9653 0 0 1.98496 0 4.42478V9.95575C0 10.5664 0.5336 11.2885 1.09524 11.0619H6.57143V44.2319C6.57143 47.2381 8.83726 50 12.0476 50H38.3333C42.561 50 46 46.5265 46 42.2566C46 41.646 45.5093 41.1504 44.9048 41.1504H41.619V5.53097C41.619 2.48142 39.1622 0 36.1429 0H4.38095ZM8.17661 2.21239H36.1429C37.9548 2.21239 39.4286 3.70088 39.4286 5.53097V41.1504H16.4286C15.824 41.1504 15.3333 41.646 15.3333 42.2566V44.469C15.3333 46.2991 13.8596 47.7876 12.0476 47.7876C10.0841 47.7876 8.7619 46.0717 8.7619 44.2319V4.42478C8.7619 3.62743 8.55162 2.86903 8.17661 2.21239ZM30.6667 18.3628C27.0427 18.3628 24.0952 21.3398 24.0952 25C24.0952 26.915 24.8882 28.6858 26.2857 29.9434V37.1681C26.2857 37.5761 26.5083 37.9513 26.864 38.1434C27.2197 38.3354 27.6526 38.315 27.9882 38.0885L30.6667 36.285L33.3452 38.0885C33.6816 38.315 34.1136 38.3354 34.4693 38.1434C34.8251 37.9513 35.0476 37.5761 35.0476 37.1681V29.9434C36.4451 28.6858 37.2381 26.915 37.2381 25C37.2381 21.3407 34.2906 18.3628 30.6667 18.3628ZM30.6667 20.5752C33.0823 20.5752 35.0476 22.5602 35.0476 25C35.0476 27.4973 33.0341 29.4248 30.6667 29.4248C28.2992 29.4248 26.2857 27.4982 26.2857 25C26.2857 22.5602 28.251 20.5752 30.6667 20.5752ZM28.4762 31.2593C29.1719 31.508 29.9096 31.6372 30.6667 31.6372C31.4237 31.6372 32.1614 31.508 32.8571 31.2593V35.1009L31.2739 34.0345C30.9059 33.7867 30.4266 33.7867 30.0586 34.0345L28.4753 35.1009L28.4762 31.2593ZM17.5238 43.3513H43.6991C43.1901 45.8735 40.9777 47.7876 38.3333 47.7876H16.4259C17.1146 46.8628 17.5238 45.7018 17.5238 44.4575V43.3513Z" fill="black"/>
</svg>
