<svg width="50" height="50" viewBox="0 0 50 50" fill="none" xmlns="http://www.w3.org/2000/svg">
<path d="M36.2015 0H13.7979C6.18974 0 0 6.19004 0 13.7982V36.2018C0 43.8103 6.18974 50 13.7979 50H36.2015C43.8103 50 50 43.81 50 36.2018V13.7982C50.0003 6.19004 43.8103 0 36.2015 0ZM45.5641 36.2018C45.5641 41.3641 41.3641 45.5638 36.2018 45.5638H13.7979C8.63589 45.5641 4.43624 41.3641 4.43624 36.2018V13.7982C4.43624 8.63618 8.63589 4.43624 13.7979 4.43624H36.2015C41.3638 4.43624 45.5638 8.63618 45.5638 13.7982L45.5641 36.2018Z" fill="black"/>
<path d="M25 12.1169C17.8958 12.1169 12.1163 17.8964 12.1163 25.0006C12.1163 32.1045 17.8958 37.8838 25 37.8838C32.1042 37.8838 37.8838 32.1045 37.8838 25.0006C37.8838 17.8964 32.1042 12.1169 25 12.1169ZM25 33.4472C20.3423 33.4472 16.5525 29.6581 16.5525 25.0003C16.5525 20.3423 20.342 16.5528 25 16.5528C29.6581 16.5528 33.4475 20.3423 33.4475 25.0003C33.4475 29.6581 29.6578 33.4472 25 33.4472Z" fill="black"/>
<path d="M38.424 8.35522C37.5693 8.35522 36.7297 8.70125 36.126 9.30753C35.5195 9.91086 35.1708 10.7508 35.1708 11.6085C35.1708 12.4635 35.5198 13.3031 36.126 13.9094C36.7294 14.5127 37.5693 14.8617 38.424 14.8617C39.2817 14.8617 40.1187 14.5127 40.7249 13.9094C41.3312 13.3031 41.6773 12.4632 41.6773 11.6085C41.6773 10.7508 41.3312 9.91086 40.7249 9.30753C40.1216 8.70125 39.2817 8.35522 38.424 8.35522Z" fill="black"/>
</svg>
