<svg width="50" height="50" viewBox="0 0 50 50" fill="none" xmlns="http://www.w3.org/2000/svg">
<path d="M48.9583 0C47.6066 0 38.4246 0 37.5 0C36.9248 0 36.4583 0.46635 36.4583 1.04166C36.4583 1.61697 36.9248 2.08332 37.5 2.08332H38.5417V8.33326C37.368 8.33326 29.1629 8.33326 28.125 8.33326C27.5498 8.33326 27.0833 8.79961 27.0833 9.37492C27.0833 9.95023 27.5498 10.4166 28.125 10.4166H29.1667V17.7082C27.993 17.7082 19.7879 17.7082 18.75 17.7082C18.1748 17.7082 17.7083 18.1745 17.7083 18.7498C17.7083 19.3252 18.1748 19.7915 18.75 19.7915H19.7917V28.1248C18.8335 28.1248 11.6484 28.1248 10.4167 28.1248C9.84146 28.1248 9.375 28.5911 9.375 29.1664C9.375 29.7415 9.84146 30.2081 10.4167 30.2081H11.4583V37.4997C10.2847 37.4997 2.07958 37.4997 1.04167 37.4997C0.466458 37.4997 0 37.966 0 38.5413C0 39.1164 0.466458 39.583 1.04167 39.583H2.08333V47.9163H1.04167C0.466458 47.9163 0 48.3826 0 48.9579C0 49.533 0.466458 49.9996 1.04167 49.9996C1.05771 49.9996 48.9478 50 48.9583 50C49.5336 50 50 49.5336 50 48.9583V1.04166C50 0.46635 49.5336 0 48.9583 0ZM47.9167 47.9163H4.16667V39.583H12.5C13.0753 39.583 13.5417 39.1164 13.5417 38.5413V30.2081H20.8333C21.4086 30.2081 21.875 29.7415 21.875 29.1664V19.7915H30.2083C30.7836 19.7915 31.25 19.3252 31.25 18.7498V10.4166H39.5833C40.1586 10.4166 40.625 9.95023 40.625 9.37492V2.08332H47.9167V47.9163Z" fill="black"/>
<path d="M31.25 41.6663C31.25 42.2414 31.7165 42.708 32.2917 42.708H42.7083C43.2836 42.708 43.75 42.2414 43.75 41.6663V26.0414C43.75 25.4661 43.2836 24.9998 42.7083 24.9998C42.1331 24.9998 41.6667 25.4661 41.6667 26.0414V40.6247H32.2917C31.7165 40.6247 31.25 41.091 31.25 41.6663Z" fill="black"/>
</svg>
