<svg width="50" height="49" viewBox="0 0 50 49" fill="none" xmlns="http://www.w3.org/2000/svg">
<path d="M25.087 26.9155C17.6037 26.9155 11.5127 20.8768 11.5127 13.4577C11.5127 6.03873 17.6037 0 25.087 0C32.5703 0 38.6614 6.03873 38.6614 13.4577C38.6614 20.8768 32.5703 26.9155 25.087 26.9155ZM25.087 3.62324C19.518 3.62324 15.1673 8.10916 15.1673 13.4577C15.1673 18.8063 19.6921 23.2923 25.087 23.2923C30.656 23.2923 35.0067 18.8063 35.0067 13.4577C35.0067 8.10916 30.656 3.62324 25.087 3.62324Z" fill="black"/>
<path d="M1.94099 48.4824C1.76695 48.4824 1.76695 48.4824 1.59292 48.4824C0.548743 48.3099 -0.147379 47.4472 0.0266517 46.412C2.28905 32.9542 12.7309 23.2923 25.087 23.2923C37.4432 23.2923 47.885 32.9542 49.9733 46.412C50.1474 47.4472 49.4513 48.3099 48.4071 48.4824C47.3629 48.6549 46.4927 47.9648 46.3187 46.9296C44.4044 35.3697 35.5288 26.9155 25.087 26.9155C14.6452 26.9155 5.76965 35.3697 3.85532 46.9296C3.68129 47.7923 2.81114 48.4824 1.94099 48.4824Z" fill="black"/>
<path d="M25.087 49C24.5649 49 23.8688 48.6549 23.5207 48.3099L11.6867 32.0916C11.1646 31.2289 11.3386 30.1937 12.0347 29.5035C12.9049 28.9859 13.9491 29.1585 14.6452 29.8486L24.913 43.9965L35.1808 29.8486C35.7029 28.9859 36.9211 28.8134 37.7912 29.5035C38.6614 30.0211 38.8354 31.2289 38.1393 32.0916L26.6533 48.3099C26.3052 48.8275 25.6091 49 25.087 49Z" fill="black"/>
<path d="M25.087 35.1972C24.5649 35.1972 24.2169 35.0247 23.8688 34.6796L17.4297 28.4683C16.7336 27.7782 16.7336 26.5704 17.4297 25.8803C18.1258 25.1901 19.344 25.1901 20.0401 25.8803L25.261 30.8838L30.482 25.8803C31.1781 25.1901 32.3963 25.1901 33.0924 25.8803C33.7885 26.5704 33.7885 27.7782 33.0924 28.4683L26.6533 34.6796C25.9572 35.0247 25.6091 35.1972 25.087 35.1972Z" fill="black"/>
<path d="M20.3882 41.9261C20.2142 41.9261 20.0401 41.9261 19.8661 41.7535C18.8219 41.4085 18.4739 40.3732 18.6479 39.5106L21.0843 32.7817C21.4324 31.7465 22.4766 31.2289 23.5207 31.5739C24.5649 31.919 24.913 32.9542 24.739 33.8169L22.3025 40.5458C21.7804 41.4085 21.0843 41.9261 20.3882 41.9261Z" fill="black"/>
<path d="M29.7858 41.9261C29.0897 41.9261 28.2196 41.4085 28.0455 40.7183L25.6091 33.9894C25.261 32.9542 25.7831 31.919 26.8273 31.7465C27.8715 31.4014 28.9157 31.919 29.0897 32.9542L31.5261 39.6831C31.8742 40.7183 31.3521 41.7535 30.3079 41.9261C30.1339 41.9261 29.9599 41.9261 29.7858 41.9261Z" fill="black"/>
</svg>
