<svg width="51" height="44" viewBox="0 0 51 44" fill="none" xmlns="http://www.w3.org/2000/svg">
<path d="M32.1345 25.836L47.8224 14.2174M3.52726 14.2174L19.5612 26.0616M46.7961 12.0954L26.9098 2.28831C26.5251 2.09865 26.1018 2 25.6727 2C25.2437 2 24.8204 2.09865 24.4356 2.28831L4.54937 12.0954C3.787 12.4686 3.14426 13.0474 2.69377 13.7664C2.24328 14.4854 2.00297 15.316 2 16.1642V37.1578C2 39.6698 4.06453 41.7065 6.61163 41.7065H44.7384C47.2855 41.7065 49.35 39.6698 49.35 37.1578V16.1642C49.3466 15.3155 49.1056 14.4846 48.6543 13.7656C48.203 13.0465 47.5593 12.468 46.7961 12.0954ZM42.2855 34.0706L27.3751 22.7294C26.8892 22.3598 26.2911 22.1591 25.6754 22.1591C25.0598 22.1591 24.4617 22.3598 23.9757 22.7294L9.06415 34.0706H42.2855Z" stroke="black" stroke-width="2.7" stroke-linecap="round" stroke-linejoin="round"/>
</svg>
