<svg width="50" height="33" viewBox="0 0 50 33" fill="none" xmlns="http://www.w3.org/2000/svg">
<path d="M45.8333 0H4.16667C1.88889 0 0 1.87 0 4.125V28.875C0 31.13 1.88889 33 4.16667 33H45.8333C48.1111 33 50 31.13 50 28.875V4.125C50 1.87 48.1111 0 45.8333 0ZM45.2778 2.75L44.8889 3.135L25 20.185L5.11111 3.135L4.72222 2.75H45.2778ZM3.27778 27.83L3.22222 27.885L2.77778 28.325V4.675L3.16667 5.06L3.22222 5.115L16.4444 16.5L3.27778 27.83ZM4.72222 30.25L5.11111 29.865L18.6111 18.315L24.1111 23.045C24.3889 23.265 24.7222 23.375 25 23.375C25.2778 23.375 25.6667 23.265 25.8889 23.045L31.3889 18.315L44.8889 29.865L45.2778 30.25H4.72222ZM47.2222 28.325L46.8333 27.94L46.7778 27.885L33.5556 16.5L46.7778 5.17L46.8333 5.115L47.2222 4.73V28.325Z" fill="black"/>
</svg>
