<svg width="39" height="50" viewBox="0 0 39 50" fill="none" xmlns="http://www.w3.org/2000/svg">
<path d="M5.43737 5.63279C3.66384 7.34167 2.26883 9.37379 1.33546 11.6081C0.40208 13.8423 -0.0505668 16.2331 0.00448077 18.6378C0.301456 31.0093 18.0501 48.7495 18.8012 49.4831C18.9636 49.6457 19.1587 49.7753 19.3748 49.8641C19.591 49.9529 19.8237 49.9991 20.059 50C20.2998 49.9971 20.5374 49.9468 20.7569 49.8521C20.9763 49.7574 21.1729 49.6204 21.3343 49.4498C22.0505 48.6995 38.8034 30.976 38.9955 18.6378C39.0506 16.2331 38.5979 13.8423 37.6645 11.6081C36.7312 9.37379 35.3362 7.34167 33.5626 5.63279C31.7283 3.84919 29.54 2.43242 27.1254 1.46528C24.7109 0.498129 22.1186 0 19.5 0C16.8814 0 14.2891 0.498129 11.8746 1.46528C9.46004 2.43242 7.27167 3.84919 5.43737 5.63279ZM35.5366 18.5711C35.2397 27.8414 23.8847 41.4967 20.0241 45.8317C16.0237 41.53 3.79528 27.8581 3.4983 18.5711C3.45383 16.6098 3.82381 14.66 4.58616 12.8381C5.3485 11.0162 6.4876 9.35954 7.93545 7.96703C9.44494 6.49596 11.2469 5.32725 13.2357 4.52938C15.2245 3.73151 17.3601 3.32054 19.5175 3.32054C21.6748 3.32054 23.8105 3.73151 25.7993 4.52938C27.7881 5.32725 29.59 6.49596 31.0995 7.96703C32.5473 9.35954 33.6864 11.0162 34.4488 12.8381C35.2111 14.66 35.5811 16.6098 35.5366 18.5711Z" fill="black"/>
<path d="M10.119 18.7378C10.119 20.5119 10.6702 22.2462 11.7029 23.7214C12.7356 25.1965 14.2034 26.3462 15.9207 27.0251C17.6381 27.7041 19.5278 27.8817 21.3509 27.5356C23.174 27.1895 24.8486 26.3352 26.163 25.0807C27.4774 23.8262 28.3725 22.2278 28.7351 20.4878C29.0978 18.7478 28.9116 16.9442 28.2003 15.3051C27.489 13.666 26.2844 12.2651 24.7388 11.2794C23.1932 10.2937 21.3762 9.76766 19.5173 9.76766C17.0262 9.77207 14.6383 10.7185 12.8768 12.3998C11.1152 14.0811 10.1236 16.3601 10.119 18.7378ZM25.4219 18.7378C25.4219 19.8524 25.0756 20.942 24.4268 21.8687C23.778 22.7955 22.8558 23.5178 21.7769 23.9443C20.698 24.3709 19.5108 24.4825 18.3654 24.265C17.22 24.0476 16.168 23.5109 15.3422 22.7227C14.5164 21.9346 13.9541 20.9304 13.7262 19.8372C13.4984 18.7441 13.6153 17.6109 14.0622 16.5812C14.5091 15.5514 15.2659 14.6713 16.2369 14.052C17.2079 13.4328 18.3495 13.1023 19.5173 13.1023C21.0833 13.1023 22.5852 13.696 23.6925 14.7529C24.7998 15.8098 25.4219 17.2432 25.4219 18.7378Z" fill="black"/>
</svg>
