<svg width="50" height="50" viewBox="0 0 50 50" fill="none" xmlns="http://www.w3.org/2000/svg">
<path d="M47.5601 2.43996L21.7952 28.21M2.56775 18.8023L46.7993 2.05838C46.9589 1.99734 47.1327 1.98382 47.2998 2.01945C47.4669 2.05507 47.6201 2.13833 47.7409 2.25915C47.8617 2.37998 47.9449 2.5332 47.9806 2.70032C48.0162 2.86744 48.0027 3.0413 47.9416 3.20089L31.2011 47.4412C31.1345 47.6093 31.0181 47.7528 30.8675 47.8527C30.7169 47.9525 30.5393 48.0039 30.3586 47.9998C30.178 47.9957 30.0029 47.9364 29.857 47.8298C29.7111 47.7232 29.6013 47.5745 29.5424 47.4036L22.0894 29.0339C22.0025 28.7736 21.8562 28.5371 21.6622 28.343C21.4682 28.1489 21.2317 28.0027 20.9714 27.9158L2.60535 20.4679C2.43233 20.4103 2.28133 20.3007 2.17301 20.154C2.06469 20.0073 2.00434 19.8306 2.00023 19.6483C1.99611 19.466 2.04843 19.2868 2.15002 19.1354C2.25161 18.9839 2.39751 18.8676 2.56775 18.8023Z" stroke="black" stroke-width="3.6" stroke-linecap="round" stroke-linejoin="round"/>
</svg>
