<svg width="50" height="50" viewBox="0 0 50 50" fill="none" xmlns="http://www.w3.org/2000/svg">
<path d="M44.3225 11.5231C47.4581 11.5231 50 8.94356 50 5.76156C50 2.57955 47.4581 1.76966e-05 44.3225 1.76966e-05C41.1868 1.76966e-05 38.6449 2.57955 38.6449 5.76156C38.6449 8.94356 41.1868 11.5231 44.3225 11.5231Z" fill="black"/>
<path d="M44.3225 30.7625C47.4581 30.7625 50 28.183 50 25.001C50 21.819 47.4581 19.2394 44.3225 19.2394C41.1868 19.2394 38.6449 21.819 38.6449 25.001C38.6449 28.183 41.1868 30.7625 44.3225 30.7625Z" fill="black"/>
<path d="M44.3225 50C47.4581 50 50 47.4205 50 44.2385C50 41.0564 47.4581 38.4769 44.3225 38.4769C41.1868 38.4769 38.6449 41.0564 38.6449 44.2385C38.6449 47.4205 41.1868 50 44.3225 50Z" fill="black"/>
<path d="M25 11.5231C28.1356 11.5231 30.6775 8.94356 30.6775 5.76156C30.6775 2.57955 28.1356 1.76966e-05 25 1.76966e-05C21.8644 1.76966e-05 19.3225 2.57955 19.3225 5.76156C19.3225 8.94356 21.8644 11.5231 25 11.5231Z" fill="black"/>
<path d="M5.67755 11.5231C8.81317 11.5231 11.3551 8.94355 11.3551 5.76154C11.3551 2.57953 8.81317 0 5.67755 0C2.54192 0 0 2.57953 0 5.76154C0 8.94355 2.54192 11.5231 5.67755 11.5231Z" fill="black"/>
<path d="M25 30.7625C28.1356 30.7625 30.6775 28.183 30.6775 25.001C30.6775 21.819 28.1356 19.2394 25 19.2394C21.8644 19.2394 19.3225 21.819 19.3225 25.001C19.3225 28.183 21.8644 30.7625 25 30.7625Z" fill="black"/>
<path d="M5.67755 30.7625C8.81317 30.7625 11.3551 28.183 11.3551 25.001C11.3551 21.819 8.81317 19.2394 5.67755 19.2394C2.54192 19.2394 0 21.819 0 25.001C0 28.183 2.54192 30.7625 5.67755 30.7625Z" fill="black"/>
<path d="M25 50C28.1356 50 30.6775 47.4205 30.6775 44.2385C30.6775 41.0564 28.1356 38.4769 25 38.4769C21.8644 38.4769 19.3225 41.0564 19.3225 44.2385C19.3225 47.4205 21.8644 50 25 50Z" fill="black"/>
<path d="M5.67755 50C8.81317 50 11.3551 47.4205 11.3551 44.2385C11.3551 41.0564 8.81317 38.4769 5.67755 38.4769C2.54192 38.4769 0 41.0564 0 44.2385C0 47.4205 2.54192 50 5.67755 50Z" fill="black"/>
</svg>
