<svg width="20" height="20" viewBox="0 0 20 20" fill="none" xmlns="http://www.w3.org/2000/svg">
<path d="M10.0098 20C7.45075 20.001 4.883 19.0245 2.929 17.0702C0.979751 15.1212 -0.000499233 12.5602 7.66675e-07 10.0057C-0.000999233 7.4475 0.976251 4.8815 2.92925 2.92875C4.87975 0.978 7.443 -0.000749569 10 4.30705e-07C12.5567 -0.000749569 15.1197 0.978 17.0707 2.92875L16.5372 3.46225L16.004 3.9955C14.3445 2.336 12.175 1.50975 10 1.509C7.8245 1.51 5.65525 2.33625 3.99575 3.9955C2.335 5.657 1.5095 7.82775 1.5085 10.006C1.509 12.1782 2.33725 14.3447 3.9955 16.0037C5.6575 17.6655 7.8295 18.49 10.0092 18.4907C12.1812 18.4902 14.3465 17.662 16.0045 16.0042C17.6612 14.3465 18.49 12.1812 18.4902 10.0095C18.4895 7.82975 17.6647 5.6575 16.004 3.99575L16.5372 3.46225L17.071 2.92875C19.025 4.88175 20.0012 7.44975 20 10.0087C20.0005 12.5635 19.0197 15.1227 17.071 17.071C15.1235 19.018 12.5652 19.9997 10.0112 19.9997C10.0107 20 10.0098 20 10.0098 20ZM5.20325 9.27775C4.80375 9.27775 4.48025 9.601 4.48025 10.0007C4.48025 10.3995 4.80375 10.7235 5.203 10.7232L14.7972 10.723C15.1962 10.7232 15.5195 10.3995 15.5192 10.0005C15.5192 9.6005 15.196 9.27775 14.7967 9.27775H5.20325Z" fill="black"/>
</svg>
