<svg width="50" height="50" viewBox="0 0 50 50" fill="none" xmlns="http://www.w3.org/2000/svg">
<path d="M25.0244 50C18.6269 50.0025 12.2075 47.5612 7.3225 42.6756C2.44938 37.8031 -0.00124808 31.4006 1.91669e-06 25.0144C-0.00249808 18.6187 2.44063 12.2038 7.32313 7.32188C12.1994 2.445 18.6075 -0.00187392 25 1.07676e-06C31.3919 -0.00187392 37.7994 2.445 42.6769 7.32188L41.3431 8.65563L40.01 9.98875C35.8612 5.84 30.4375 3.77438 25 3.7725C19.5613 3.775 14.1381 5.84063 9.98938 9.98875C5.8375 14.1425 3.77375 19.5694 3.77125 25.015C3.7725 30.4456 5.84313 35.8619 9.98875 40.0094C14.1438 44.1637 19.5737 46.225 25.0231 46.2269C30.4531 46.2256 35.8662 44.155 40.0112 40.0106C44.1531 35.8662 46.225 30.4531 46.2256 25.0237C46.2237 19.5744 44.1619 14.1437 40.01 9.98938L41.3431 8.65563L42.6775 7.32188C47.5625 12.2044 50.0031 18.6244 50 25.0219C50.0012 31.4087 47.5494 37.8069 42.6775 42.6775C37.8087 47.545 31.4131 49.9994 25.0281 49.9994C25.0269 50 25.0244 50 25.0244 50ZM13.0081 23.1944C12.0094 23.1944 11.2006 24.0025 11.2006 25.0019C11.2006 25.9987 12.0094 26.8087 13.0075 26.8081L36.9931 26.8075C37.9906 26.8081 38.7988 25.9987 38.7981 25.0012C38.7981 24.0012 37.99 23.1944 36.9919 23.1944H13.0081V23.1944Z" fill="black"/>
</svg>
