<svg width="72" height="72" viewBox="0 0 72 72" fill="none" xmlns="http://www.w3.org/2000/svg">
<path d="M28.4224 25.8988C28.4169 25.8933 28.4114 25.8877 28.4048 25.8811C27.7075 25.1839 26.5772 25.1828 25.8789 25.8811C25.1806 26.5794 25.1806 27.7086 25.8789 28.407C25.8855 28.4136 25.8911 28.4191 25.8977 28.4257L43.5742 46.1023C43.5798 46.1078 43.5853 46.1134 43.5919 46.12C44.2891 46.8172 45.4195 46.8183 46.1178 46.12C46.8161 45.4217 46.8161 44.2924 46.1178 43.5941C46.1112 43.5875 46.1056 43.582 46.099 43.5753L28.4224 25.8988Z" fill="black"/>
<path d="M46.1012 28.4246C46.1067 28.4191 46.1123 28.4136 46.1189 28.407C46.8161 27.7098 46.8172 26.5794 46.1189 25.8811C45.4206 25.1828 44.2913 25.1828 43.593 25.8811C43.5864 25.8877 43.5809 25.8933 43.5742 25.8999L43.5754 25.8988L25.8977 43.5765C25.8922 43.582 25.8866 43.5875 25.88 43.5941C25.1828 44.2913 25.1817 45.4217 25.88 46.12C26.5783 46.8183 27.7075 46.8183 28.4059 46.12C28.4125 46.1134 28.418 46.1078 28.4246 46.1012L28.4235 46.1023L46.1012 28.4246Z" fill="black"/>
<path d="M53.6777 18.3223C43.9289 8.57358 28.07 8.57469 18.3223 18.3223C8.5747 28.07 8.5747 43.93 18.3223 53.6777C28.0711 63.4264 43.93 63.4253 53.6777 53.6777C63.4253 43.93 63.4253 28.07 53.6777 18.3223ZM51.1518 20.8482C59.536 29.2323 59.5349 42.771 51.1518 51.154C42.7688 59.5371 29.2301 59.5382 20.846 51.154C12.4618 42.7699 12.4618 29.2323 20.846 20.8482C29.2301 12.464 42.7677 12.464 51.1518 20.8482Z" fill="black"/>
</svg>
