<svg width="50" height="50" viewBox="0 0 50 50" fill="none" xmlns="http://www.w3.org/2000/svg">
<path fill-rule="evenodd" clip-rule="evenodd" d="M14.5842 14.5831C14.5842 9.03692 19.6093 4.1666 25.0008 4.1666C30.3923 4.1666 35.4175 9.03692 35.4175 14.5831V22.9163C35.4175 29.2022 30.096 35.4161 25.0008 35.4161C19.9057 35.4161 14.5842 29.2022 14.5842 22.9163V14.5831ZM10.4175 14.5831V22.9163C10.4175 31.3723 17.4488 39.5827 25.0008 39.5827C32.5529 39.5827 39.5842 31.3723 39.5842 22.9163V14.5831C39.5842 6.7061 32.6649 0 25.0008 0C17.3368 0 10.4175 6.7061 10.4175 14.5831Z" fill="black"/>
<path fill-rule="evenodd" clip-rule="evenodd" d="M36.1399 25.1279C33.2296 26.1995 28.8145 27.0829 25.0015 27.0829C23.8509 27.0829 22.9181 28.0156 22.9181 29.1662C22.9181 30.3168 23.8509 31.2495 25.0015 31.2495C29.3387 31.2495 34.2325 30.2704 37.5797 29.0379C38.6594 28.6403 39.2124 27.4427 38.8148 26.363C38.4172 25.2833 37.2196 24.7303 36.1399 25.1279Z" fill="black"/>
<path fill-rule="evenodd" clip-rule="evenodd" d="M12.7108 25.2112C12.6879 25.08 12.6692 24.9487 12.6504 24.8175C12.5629 24.1863 12.5004 23.5529 12.5004 22.9155V14.5823C12.5004 13.8719 12.5817 13.1781 12.7067 12.499H12.4442C10.1775 12.499 8.33375 14.3427 8.33375 16.6093V22.9738C8.33375 25.2404 10.1775 27.0821 12.4442 27.0821H13.1421C12.9546 26.4696 12.8171 25.8425 12.7108 25.2112Z" fill="black"/>
<path fill-rule="evenodd" clip-rule="evenodd" d="M37.5577 12.4998H37.2952C37.4202 13.1789 37.5015 13.8727 37.5015 14.5831V22.9163C37.5015 23.5538 37.439 24.1871 37.3515 24.8183C37.3327 24.9496 37.314 25.0808 37.291 25.2121C37.1848 25.8433 37.0473 26.4683 36.8598 27.0829H37.5577C39.8244 27.0829 41.6681 25.2392 41.6681 22.9725V16.6101C41.6681 14.3435 39.8244 12.4998 37.5577 12.4998Z" fill="black"/>
<path fill-rule="evenodd" clip-rule="evenodd" d="M33.5799 33.3483L33.3333 33.3336H30.95C30.5175 33.3336 30.0958 33.4682 29.7432 33.7187C28.5843 34.5423 27.3659 35.0776 26.1648 35.2935C25.6688 35.3807 25.317 35.4161 25.0008 35.4161C24.6859 35.4161 24.3299 35.3804 23.8956 35.3055C22.6362 35.0776 21.4178 34.5423 20.2589 33.7187C19.9063 33.4682 19.4846 33.3336 19.0521 33.3336H16.6667L16.42 33.3483C12.5479 33.81 7.94764 35.4833 3.04048 38.0648C1.17215 39.0482 0 40.9893 0 43.1001V47.9167C0 49.0673 0.93274 50 2.08333 50H47.9167C49.0673 50 50 49.0673 50 47.9167V43.1001C50 40.9891 48.8297 39.0481 46.9621 38.065C42.0539 35.483 37.4537 33.81 33.5799 33.3483ZM4.16667 45.8334V43.1001C4.16667 42.5364 4.48166 42.0148 4.98086 41.752C9.42155 39.4159 13.5268 37.914 16.7942 37.5002H18.414C19.8957 38.4551 21.4802 39.1032 23.1002 39.3944C23.1131 39.399 23.1131 39.399 23.1992 39.4135C23.8382 39.5237 24.4208 39.5827 25.0008 39.5827C25.5817 39.5827 26.1587 39.5241 26.8129 39.4118C26.8719 39.402 26.8719 39.402 27.0386 39.3651C28.5375 39.0999 30.1082 38.4547 31.5883 37.5002H33.2059C36.4749 37.914 40.58 39.4157 45.0217 41.7522C45.5193 42.0141 45.8333 42.5351 45.8333 43.1001V45.8334H4.16667Z" fill="black"/>
</svg>
