<svg width="50" height="36" viewBox="0 0 50 36" fill="none" xmlns="http://www.w3.org/2000/svg">
<path d="M4.80769 36H45.1923C47.8846 36 50 33.9158 50 31.2632V4.73684C50 2.08421 47.8846 0 45.1923 0H4.80769C2.11538 0 0 2.08421 0 4.73684V31.2632C0 33.9158 2.11538 36 4.80769 36ZM45.1923 34.1053H4.80769C3.17308 34.1053 1.92308 32.8737 1.92308 31.2632V16.1053H48.0769V31.2632C48.0769 32.8737 46.8269 34.1053 45.1923 34.1053ZM4.80769 1.89474H45.1923C46.8269 1.89474 48.0769 3.12632 48.0769 4.73684V8.52632H1.92308V4.73684C1.92308 3.12632 3.17308 1.89474 4.80769 1.89474Z" fill="black"/>
<path d="M11.8269 19.8947H9.90385C7.78846 19.8947 6.05769 21.6 6.05769 23.6842V25.5789C6.05769 27.6632 7.78846 29.3684 9.90385 29.3684H11.8269C13.9423 29.3684 15.6731 27.6632 15.6731 25.5789V23.6842C15.6731 21.6 13.9423 19.8947 11.8269 19.8947Z" fill="black"/>
<path d="M44.0385 22.0737H18.5577V23.9684H44.0385V22.0737Z" fill="black"/>
<path d="M39.2308 25.8632H18.5577V27.7579H39.2308V25.8632Z" fill="black"/>
</svg>
