<svg width="50" height="50" viewBox="0 0 50 50" fill="none" xmlns="http://www.w3.org/2000/svg">
<path d="M7.87109 45.3301C7.87109 45.8801 8.32109 46.3301 8.87109 46.3301H23.1211C23.6711 46.3301 24.1211 45.8801 24.1211 45.3301C24.1211 44.7801 23.6711 44.3301 23.1211 44.3301H8.87109C8.32109 44.3301 7.87109 44.7801 7.87109 45.3301Z" fill="black"/>
<path d="M2.75 50H29.25C30.76 50 32 48.76 32 47.25V39.41H30V47.25C30 47.66 29.66 48 29.25 48H2.75C2.33 48 2 47.67 2 47.25V2.75C2 2.32 2.33 2 2.75 2H7.7V2.72C7.7 4.25 8.95 5.5 10.48 5.5H21.52C23.04 5.5 24.29 4.25 24.29 2.72V2H29.25C29.66 2 30 2.33 30 2.75V10.58H32V2.75C32 1.23 30.76 0 29.25 0H2.75C1.23 0 0 1.23 0 2.75V47.25C0 48.76 1.23 50 2.75 50Z" fill="black"/>
<path d="M47.15 12.5801H14.35C12.78 12.5801 11.5 13.8601 11.5 15.4301V34.5601C11.5 36.1301 12.78 37.4101 14.35 37.4101H47.15C48.72 37.4101 50 36.1301 50 34.5601V15.4301C50 13.8601 48.72 12.5801 47.15 12.5801ZM16.71 26.6601H31.08C31.63 26.6601 32.08 27.1101 32.08 27.6601C32.08 28.2101 31.63 28.6601 31.08 28.6601H16.71C16.15 28.6601 15.71 28.2101 15.71 27.6601C15.71 27.1101 16.15 26.6601 16.71 26.6601ZM44.79 32.9101H16.71C16.15 32.9101 15.71 32.4601 15.71 31.9101C15.71 31.3601 16.15 30.9101 16.71 30.9101H44.79C45.34 30.9101 45.79 31.3601 45.79 31.9101C45.79 32.4601 45.34 32.9101 44.79 32.9101ZM45.79 23.4101C45.79 23.9601 45.34 24.4101 44.79 24.4101H37.54C36.99 24.4101 36.54 23.9601 36.54 23.4101V18.0801C36.54 17.5301 36.99 17.0801 37.54 17.0801H44.79C45.34 17.0801 45.79 17.5301 45.79 18.0801V23.4101Z" fill="black"/>
</svg>
