<svg width="49" height="43" viewBox="0 0 49 43" fill="none" xmlns="http://www.w3.org/2000/svg">
<path d="M37.5473 17.0654L40.8817 16.9205C41.4615 16.7756 42.0414 16.196 42.0414 15.4716V11.4148H6.08876C5.36391 11.4148 4.78402 10.8353 4.78402 10.2557C4.78402 9.53128 5.36391 8.95174 6.08876 8.95174H12.7574L17.3965 6.77845H4.05917C3.18935 6.77845 2.4645 7.50288 2.4645 8.37219V39.0881C2.4645 39.9574 3.18935 40.6818 4.05917 40.6818H40.4467C41.3166 40.6818 42.0414 39.9574 42.0414 39.0881V31.9886C42.0414 31.1193 41.3166 30.3949 40.4467 30.3949C38.8521 30.3949 37.2574 30.3949 35.5178 30.3949C33.3432 30.3949 31.6036 28.6563 31.6036 26.3381V20.9773C31.6036 17.3551 34.6479 17.0654 37.5473 17.0654ZM18.4112 8.95174H34.358L31.3136 2.86652L18.4112 8.95174ZM37.1124 8.95174H42.0414V8.37219C42.0414 7.50288 41.3166 6.77845 40.4467 6.77845H35.9527L37.1124 8.95174ZM34.7929 4.31538H40.4467C42.6213 4.31538 44.3609 6.1989 44.3609 8.37219C44.3609 10.6904 44.3609 13.1534 44.3609 15.4716C44.3609 16.0512 44.3609 16.4858 44.071 17.0654H44.9408C47.1154 17.0654 49 18.804 49 20.9773V26.3381C49 28.5114 47.1154 30.3949 44.9408 30.3949H44.071C44.3609 30.8296 44.3609 31.4091 44.3609 31.9886V39.0881C44.3609 41.2614 42.6213 43 40.4467 43H4.05917C1.88462 43 0 41.2614 0 39.0881V8.37219C0 6.1989 1.88462 4.31538 4.05917 4.31538H22.4704L31.4586 0.113679C32.0385 -0.176093 32.7633 0.113679 33.0533 0.693224L34.7929 4.31538ZM44.9408 19.5284C41.7515 19.5284 38.7071 19.5284 35.5178 19.5284C34.6479 19.5284 34.068 20.108 34.068 20.9773V26.3381C34.068 27.2074 34.6479 27.9318 35.5178 27.9318C38.7071 27.9318 41.7515 27.9318 44.9408 27.9318C45.8107 27.9318 46.5355 27.2074 46.5355 26.3381V20.9773C46.5355 20.108 45.8107 19.5284 44.9408 19.5284Z" fill="black"/>
<path d="M38.4172 25.6137C39.458 25.6137 40.3018 24.7704 40.3018 23.7301C40.3018 22.6899 39.458 21.8466 38.4172 21.8466C37.3763 21.8466 36.5325 22.6899 36.5325 23.7301C36.5325 24.7704 37.3763 25.6137 38.4172 25.6137Z" fill="black"/>
</svg>
