<svg width="50" height="50" viewBox="0 0 50 50" fill="none" xmlns="http://www.w3.org/2000/svg">
<path d="M40.9199 50L38.7149 49.97L38.0799 49.85C37.5799 49.7551 37.0499 49.6601 36.5449 49.5351C33.6499 48.8153 30.7599 47.4857 27.4449 45.3612C23.3799 42.7519 19.3749 39.4177 14.84 34.8639C11.2743 31.3871 8.05731 27.5699 5.23499 23.4669C2.83999 19.9028 1.405 16.9686 0.574998 13.8893C0.404999 13.2695 0.289999 12.6547 0.18 12.0598C0.13 11.8049 0.0849998 11.56 0.0349999 11.3L0 10.9851V9.20556L0.12 8.91564C0.999997 6.78619 2.49999 5.28158 3.96999 3.92693C5.03999 2.92719 6.16998 2.01742 7.22998 1.17264C7.86437 0.653069 8.61309 0.291507 9.41454 0.117701C10.216 -0.0561045 11.0473 -0.0371857 11.84 0.172901C12.8719 0.417953 13.7683 1.05422 14.34 1.94744L15.71 4.01191C17.14 6.19134 18.6149 8.44076 20.1149 10.6152C20.6859 11.4035 21.0278 12.3342 21.1028 13.3046C21.1778 14.275 20.983 15.2472 20.5399 16.1138C20.2749 16.6986 19.9699 17.2385 19.6749 17.7633L19.2999 18.4382C19.0199 18.938 18.7449 19.4379 18.4549 19.9378L19.3949 21.0625C20.2399 22.0622 21.1199 23.137 22.0199 24.1067C24.4895 26.8206 27.1768 29.3283 30.0549 31.6048C31.1149 30.9899 32.2249 30.3701 33.4399 29.7103C34.6557 28.9713 36.1061 28.7195 37.4999 29.0054C37.9944 29.1184 38.465 29.3181 38.8899 29.5953C41.9865 31.6314 45.0749 33.6759 48.1549 35.7287C49.7649 36.8034 50.4099 38.9929 49.7349 41.0623C49.5826 41.5568 49.3531 42.0241 49.0549 42.447C47.4507 44.7193 45.5373 46.7568 43.3699 48.5004C42.8974 48.8555 42.3956 49.1698 41.8699 49.4401C41.6799 49.5451 41.4949 49.6451 41.3099 49.7501L40.9199 50ZM39.1749 46.7958H40.0649L40.3349 46.6509C40.7051 46.463 41.0595 46.2457 41.3949 46.001C43.3279 44.4285 45.0325 42.5948 46.4599 40.5524C46.5572 40.3974 46.6313 40.229 46.6799 40.0526C46.7985 39.7756 46.8324 39.4696 46.7772 39.1733C46.7221 38.877 46.5803 38.6038 46.3699 38.388C43.2932 36.3385 40.2116 34.2991 37.1249 32.2696C37.0189 32.2022 36.9022 32.1532 36.7799 32.1246C36.1454 32.016 35.4933 32.1517 34.9549 32.5045C33.6099 33.2293 32.4049 33.9092 31.2699 34.579C30.8515 34.8512 30.357 34.9825 29.8586 34.9537C29.3603 34.925 28.8842 34.7376 28.4999 34.419C25.3299 31.9631 22.3788 29.2369 19.6799 26.2711C18.7149 25.2364 17.8099 24.1467 16.935 23.092C16.47 22.5471 16 22.0072 15.56 21.4674C15.238 21.113 15.0439 20.6612 15.0086 20.1838C14.9732 19.7064 15.0987 19.2309 15.365 18.8331C15.76 18.1832 16.125 17.5234 16.49 16.8686L16.88 16.1738C17.155 15.6739 17.41 15.234 17.615 14.7791C17.8266 14.4182 17.9259 14.0024 17.9001 13.5848C17.8742 13.1672 17.7245 12.7668 17.4699 12.4347C15.97 10.2303 14.47 7.96088 13.025 5.77145L11.69 3.72198C11.624 3.61371 11.536 3.52042 11.4319 3.44811C11.3277 3.3758 11.2095 3.32607 11.085 3.30209C10.77 3.20682 10.4363 3.19073 10.1136 3.25526C9.79089 3.31978 9.48909 3.46293 9.23497 3.672C8.23498 4.48678 7.13998 5.36156 6.14498 6.28132C4.96499 7.36604 3.85499 8.46076 3.20499 9.8504V10.8201C3.24999 11.0351 3.28999 11.25 3.32999 11.465C3.43499 12.0248 3.53499 12.5497 3.66999 13.0496C4.39999 15.7539 5.70498 18.4132 7.89498 21.6723C10.6033 25.6061 13.6897 29.2658 17.11 32.5995C21.4999 37.0034 25.3149 40.1775 29.1799 42.6619C32.1799 44.5964 34.7799 45.7911 37.3199 46.4259C37.7599 46.5359 38.2099 46.6159 38.6599 46.6959L39.1749 46.7958Z" fill="black"/>
</svg>
