<svg width="20" height="20" viewBox="0 0 20 20" fill="none" xmlns="http://www.w3.org/2000/svg">
<path d="M4.99969 9.28621C4.99656 9.28621 4.99344 9.28621 4.98969 9.28621C4.59529 9.28621 4.27527 9.6056 4.27527 10.0006C4.27527 10.3956 4.59466 10.715 4.98969 10.715C4.99344 10.715 4.99656 10.715 5.00031 10.715H14.9997C15.0028 10.715 15.0059 10.715 15.0097 10.715C15.4041 10.715 15.7241 10.3956 15.7241 10.0006C15.7241 9.6056 15.4047 9.28621 15.0097 9.28621C15.0059 9.28621 15.0028 9.28621 14.9991 9.28621H4.99969Z" fill="black"/>
<path d="M10.7144 5.00031C10.7144 4.99719 10.7144 4.99406 10.7144 4.99031C10.7144 4.59591 10.395 4.27589 10 4.27589C9.60497 4.27589 9.28558 4.59529 9.28558 4.99031C9.28558 4.99406 9.28558 4.99719 9.28558 5.00094V5.00031V15.0003C9.28558 15.0034 9.28558 15.0066 9.28558 15.0103C9.28558 15.4047 9.60497 15.7247 10 15.7247C10.395 15.7247 10.7144 15.4053 10.7144 15.0103C10.7144 15.0066 10.7144 15.0034 10.7144 14.9997V15.0003V5.00031Z" fill="black"/>
<path d="M10 0C4.48528 0 0 4.48591 0 10C0 15.5141 4.48591 20 10 20C15.5147 20 20 15.5141 20 10C20 4.48591 15.5141 0 10 0ZM10 1.42884C14.7428 1.42884 18.5718 5.25845 18.5718 10.0006C18.5718 14.7428 14.7428 18.5724 10 18.5724C5.2572 18.5724 1.42821 14.7434 1.42821 10.0006C1.42821 5.25783 5.2572 1.42884 10 1.42884Z" fill="black"/>
</svg>
