<svg width="50" height="50" viewBox="0 0 50 50" fill="none" xmlns="http://www.w3.org/2000/svg">
<path d="M12.4992 23.2155C12.4914 23.2155 12.4836 23.2155 12.4742 23.2155C11.4882 23.2155 10.6882 24.014 10.6882 25.0016C10.6882 25.9891 11.4867 26.7876 12.4742 26.7876C12.4836 26.7876 12.4914 26.7876 12.5008 26.7876H37.4992C37.507 26.7876 37.5148 26.7876 37.5242 26.7876C38.5102 26.7876 39.3103 25.9891 39.3103 25.0016C39.3103 24.014 38.5118 23.2155 37.5242 23.2155C37.5148 23.2155 37.507 23.2155 37.4977 23.2155H12.4992Z" fill="black"/>
<path d="M26.786 12.5008C26.786 12.493 26.786 12.4852 26.786 12.4758C26.786 11.4898 25.9876 10.6897 25 10.6897C24.0124 10.6897 23.214 11.4882 23.214 12.4758C23.214 12.4852 23.214 12.493 23.214 12.5023V12.5008V37.5008C23.214 37.5086 23.214 37.5164 23.214 37.5258C23.214 38.5118 24.0124 39.3118 25 39.3118C25.9876 39.3118 26.786 38.5133 26.786 37.5258C26.786 37.5164 26.786 37.5086 26.786 37.4992V37.5008V12.5008Z" fill="black"/>
<path d="M25 0C11.2132 0 0 11.2148 0 25C0 38.7852 11.2148 50 25 50C38.7868 50 50 38.7852 50 25C50 11.2148 38.7852 0 25 0ZM25 3.5721C36.857 3.5721 46.4295 13.1461 46.4295 25.0016C46.4295 36.857 36.857 46.431 25 46.431C13.143 46.431 3.57054 36.8586 3.57054 25.0016C3.57054 13.1446 13.143 3.5721 25 3.5721Z" fill="black"/>
</svg>
