<svg width="46" height="50" viewBox="0 0 46 50" fill="none" xmlns="http://www.w3.org/2000/svg">
<path d="M23.8395 49.7776C25.6939 48.6282 27.5539 47.4842 29.4084 46.3348C30.2479 45.8162 31.0983 45.303 31.9158 44.747C33.8197 43.4533 35.6028 41.9778 37.183 40.3206C40.3213 37.0381 42.7135 33.1409 44.2278 28.9069C45.4733 25.416 46 21.7486 46 18.0599C46 15.7504 46 13.441 46 11.1315C46 11.0674 46 11.0086 46 10.9444C46 10.228 45.4843 9.60257 44.7929 9.39942C44.1236 9.20162 43.4597 8.99847 42.8177 8.73652C42.9494 8.78998 43.0811 8.84344 43.2128 8.8969C42.5544 8.62425 41.9125 8.30884 41.3034 7.94531C41.0017 7.76355 40.7054 7.57644 40.4146 7.37329C40.3378 7.31983 40.2665 7.26637 40.1896 7.21291C40.1567 7.19153 40.1293 7.1648 40.0964 7.14342C39.9592 7.04184 40.2939 7.29845 40.2719 7.27706C40.1403 7.15411 39.9812 7.05253 39.844 6.94027C39.3008 6.49655 38.796 6.01007 38.3242 5.49685C38.209 5.3739 38.0992 5.24559 37.9895 5.11729C37.9292 5.04779 37.8743 4.97829 37.8139 4.9088C37.6548 4.71634 38.0553 5.22421 37.8523 4.95691C37.6384 4.67892 37.4354 4.39558 37.2433 4.10155C36.7989 3.42796 36.4148 2.71695 36.0966 1.9792C36.1515 2.1075 36.2063 2.23581 36.2612 2.36411C36.0966 1.9792 35.943 1.5836 35.8113 1.188C35.5864 0.514402 34.9719 0.01188 34.2257 0.01188C33.4795 0.01188 32.7333 0.01188 31.9871 0.01188C30.1985 0.01188 28.4043 0.01188 26.6157 0.01188C24.4594 0.01188 22.3032 0.01188 20.1469 0.01188C18.276 0.01188 16.4051 0.01188 14.5341 0.01188C13.6288 0.01188 12.718 -0.0148499 11.8127 0.01188C11.8018 0.01188 11.7853 0.01188 11.7743 0.01188C11.0281 0.01188 10.4082 0.514402 10.1887 1.188C10.057 1.58894 9.90887 1.9792 9.73879 2.36411C9.79365 2.23581 9.84852 2.1075 9.90339 1.9792C9.62357 2.62072 9.29437 3.2462 8.92128 3.8396C8.73473 4.13363 8.53721 4.42231 8.32872 4.70565C8.27385 4.78049 8.21899 4.84999 8.16412 4.92483C8.14217 4.95691 8.11474 4.98364 8.0928 5.01572C7.98855 5.14937 8.25191 4.82326 8.22996 4.84464C8.10377 4.9676 7.99952 5.12798 7.8843 5.26163C7.42891 5.79088 6.92963 6.28271 6.39742 6.73712C6.27123 6.84939 6.13955 6.95631 6.00787 7.05788C5.93655 7.11669 5.86522 7.17014 5.79389 7.2236C5.59637 7.37864 6.11761 6.98838 5.84327 7.18084C5.55797 7.38933 5.26718 7.58713 4.96541 7.77424C4.27409 8.20727 3.54437 8.57614 2.78721 8.89155C2.91889 8.83809 3.05057 8.78463 3.18225 8.73117C2.53483 8.99312 1.87643 9.19627 1.20706 9.39407C0.510258 9.59722 0 10.2227 0 10.9391C0 13.0881 0 15.2372 0 17.3863C0 18.5197 0 19.653 0.0822996 20.7864C0.252385 23.0424 0.647424 25.293 1.30033 27.4635C2.59518 31.7723 4.82276 35.7551 7.78554 39.1872C10.1064 41.8709 12.8991 44.0467 15.9332 45.9231C17.9578 47.1741 19.9823 48.4251 22.0069 49.676C22.0563 49.7081 22.1112 49.7402 22.1605 49.7722C22.8903 50.2213 24.0095 49.9433 24.4101 49.1949C24.838 48.4037 24.5966 47.4788 23.8175 47.003C21.7765 45.7414 19.7354 44.4797 17.6944 43.2181C17.4256 43.0524 17.1567 42.8866 16.8879 42.7209C16.4654 42.4589 16.0429 42.1863 15.6314 41.903C15.3845 41.7319 15.1376 41.5555 14.8907 41.3791C14.781 41.2989 14.6713 41.2133 14.5615 41.1331C15.0169 41.4699 14.5506 41.1225 14.4408 41.0369C13.4862 40.2938 12.5809 39.4973 11.725 38.6526C10.8855 37.8186 10.0351 36.9419 9.33278 35.9957C9.33826 36.001 9.59614 36.3325 9.44251 36.1293C9.37667 36.0438 9.31083 35.9636 9.24499 35.878C9.14623 35.7497 9.05296 35.6214 8.9542 35.4931C8.76217 35.2365 8.57562 34.9799 8.39456 34.718C8.01598 34.1727 7.65386 33.6167 7.31369 33.0447C6.62786 31.906 6.02433 30.7245 5.49761 29.511C5.55248 29.6393 5.60735 29.7676 5.66221 29.8959C4.59232 27.4207 3.8626 24.8226 3.49499 22.1603C3.51694 22.3046 3.5334 22.4436 3.55534 22.5879C3.31942 20.8558 3.28101 19.1238 3.28101 17.3863C3.28101 15.697 3.28101 14.0077 3.28101 12.3183C3.28101 11.8586 3.28101 11.4042 3.28101 10.9444C2.88049 11.4576 2.47447 11.9762 2.07395 12.4894C3.92295 11.9494 5.70062 11.2224 7.27529 10.1211C9.10234 8.84344 10.6551 7.24499 11.8127 5.3632C12.4547 4.32074 12.9649 3.19274 13.3435 2.03801C12.8168 2.42826 12.2846 2.82386 11.7579 3.21412C12.5041 3.21412 13.2502 3.21412 13.9964 3.21412C15.7851 3.21412 17.5792 3.21412 19.3678 3.21412C21.5241 3.21412 23.6803 3.21412 25.8366 3.21412C27.7075 3.21412 29.5785 3.21412 31.4494 3.21412C32.3547 3.21412 33.2655 3.24085 34.1708 3.21412C34.1818 3.21412 34.1982 3.21412 34.2092 3.21412C33.6825 2.82386 33.1503 2.42826 32.6236 2.03801C33.9843 6.1063 37.0293 9.60791 41.0072 11.4309C41.9509 11.8639 42.9275 12.2007 43.9261 12.4894C43.5255 11.9762 43.1195 11.4576 42.719 10.9444C42.719 12.1419 42.719 13.3394 42.719 14.5369C42.719 15.8681 42.719 17.1992 42.719 18.525C42.719 19.8829 42.6257 21.2408 42.4447 22.5879C42.4666 22.4436 42.4831 22.3046 42.505 22.1603C42.1319 24.8172 41.4022 27.4207 40.3378 29.8959C40.3927 29.7676 40.4475 29.6393 40.5024 29.511C39.5642 31.6708 38.3736 33.7236 36.947 35.6214C36.8647 35.7284 36.7879 35.8353 36.7056 35.9369C36.6288 36.0384 36.3106 36.418 36.6672 35.9903C36.4642 36.2362 36.2612 36.4875 36.0582 36.7334C35.6741 37.1825 35.2791 37.6208 34.8731 38.0485C34.0556 38.9039 33.1832 39.7165 32.2669 40.4756C32.0365 40.668 31.8006 40.8552 31.5646 41.0369C31.4549 41.1225 31.3452 41.2026 31.2409 41.2882C31.6908 40.9353 31.219 41.3042 31.1147 41.3791C30.6264 41.7372 30.1271 42.0794 29.6169 42.4055C29.2877 42.614 28.9585 42.8225 28.6238 43.0256C27.4277 43.7634 26.2316 44.5011 25.0355 45.2442C24.0864 45.8323 23.1372 46.415 22.188 47.003C21.4637 47.4521 21.1016 48.4518 21.5954 49.1949C22.0563 49.9112 23.0658 50.2587 23.8395 49.7776Z" fill="black"/>
<path d="M11.9812 24.9882C13.8968 26.8431 15.8125 28.6981 17.7337 30.5585C18.0082 30.8243 18.2827 31.09 18.5515 31.3504C19.1957 31.9741 20.2823 31.9741 20.9265 31.3504C22.4052 29.9185 23.8896 28.4811 25.3683 27.0492C27.7097 24.7821 30.0566 22.5095 32.398 20.2423C32.9357 19.7216 33.479 19.1955 34.0167 18.6748C34.6385 18.0727 34.6833 16.9662 34.0167 16.375C33.3446 15.7784 32.3027 15.7296 31.6418 16.375C30.163 17.807 28.6787 19.2443 27.1999 20.6762C24.8586 22.9434 22.5117 25.216 20.1703 27.4831C19.6326 28.0038 19.0893 28.53 18.5515 29.0506C19.3413 29.0506 20.1367 29.0506 20.9265 29.0506C19.0108 27.1957 17.0952 25.3407 15.1739 23.4803C14.8995 23.2146 14.625 22.9488 14.3562 22.6884C13.7344 22.0864 12.5917 22.043 11.9812 22.6884C11.3651 23.3339 11.3146 24.3427 11.9812 24.9882Z" fill="black"/>
</svg>
