<svg width="50" height="50" viewBox="0 0 50 50" fill="none" xmlns="http://www.w3.org/2000/svg">
<path d="M25 0C11.191 0 0 11.191 0 25C0 38.809 11.191 50 25 50C38.809 50 50 38.809 50 25C50 11.191 38.809 0 25 0ZM27.3614 36.345H22.9466V32.5462H27.3614V36.345ZM27.4127 27.5667V29.7228H22.9466V23.4086H25.154C27.0021 23.4086 28.4908 21.9199 28.4908 20.0719C28.4908 18.2238 27.0021 16.7351 25.154 16.7351C23.306 16.7351 21.8172 18.2238 21.8172 20.0719H17.3511C17.3511 15.7598 20.8419 12.269 25.154 12.269C29.4661 12.269 32.9569 15.7598 32.9569 20.0719C32.9569 23.614 30.6468 26.5914 27.4127 27.5667Z" fill="black"/>
</svg>
