<svg width="50" height="50" viewBox="0 0 50 50" fill="none" xmlns="http://www.w3.org/2000/svg">
<path d="M49.2688 45.7374L34.4175 30.886C37.3863 27.0203 38.7732 22.1699 38.297 17.3191C37.8207 12.4682 35.5169 7.98026 31.8529 4.7658C28.189 1.55133 23.4394 -0.148846 18.568 0.0102357C13.6965 0.169317 9.06793 2.17574 5.62153 5.6224C2.17512 9.06905 0.168995 13.6978 0.0101991 18.5693C-0.148597 23.4409 1.55183 28.1905 4.76646 31.8543C7.98109 35.518 12.4691 37.8216 17.3199 38.2976C22.1707 38.7737 27.0209 37.3864 30.8864 34.4174L45.7372 49.2685C45.9691 49.5004 46.2443 49.6843 46.5473 49.8099C46.8502 49.9354 47.1749 50 47.5028 50C47.8307 50 48.1554 49.9355 48.4584 49.81C48.7614 49.6845 49.0366 49.5006 49.2685 49.2688C49.5004 49.0369 49.6843 48.7617 49.8099 48.4587C49.9354 48.1558 50 47.8311 50 47.5032C50 47.1753 49.9355 46.8505 49.81 46.5476C49.6845 46.2446 49.5006 45.9693 49.2688 45.7374ZM19.224 33.3952C16.4211 33.3952 13.6812 32.5641 11.3507 31.0069C9.02027 29.4497 7.20387 27.2364 6.13126 24.6469C5.05865 22.0574 4.778 19.208 5.3248 16.459C5.8716 13.71 7.22129 11.1848 9.20319 9.20289C11.1851 7.22096 13.7102 5.87125 16.4592 5.32444C19.2081 4.77763 22.0575 5.05829 24.647 6.13091C27.2365 7.20354 29.4497 9.01996 31.0069 11.3505C32.564 13.681 33.3951 16.4209 33.3951 19.2238C33.3909 22.981 31.8965 26.583 29.2398 29.2398C26.5831 31.8965 22.9811 33.3909 19.224 33.3952Z" fill="black"/>
</svg>
