<svg width="50" height="50" viewBox="0 0 50 50" fill="none" xmlns="http://www.w3.org/2000/svg">
<path d="M48.4326 40.858L40.3221 32.7474C39.9902 32.4152 39.5962 32.1517 39.1624 31.9719C38.7287 31.7921 38.2638 31.6996 37.7942 31.6996C37.3247 31.6996 36.8597 31.7921 36.426 31.9719C35.9922 32.1517 35.5982 32.4152 35.2664 32.7474L31.6934 29.1745C34.5953 25.6264 36.0223 21.0986 35.6793 16.5278C35.3363 11.9571 33.2495 7.69298 29.8506 4.61768C26.4518 1.54237 22.0009 -0.108854 17.4187 0.00557352C12.8365 0.120001 8.47357 1.99133 5.23245 5.23245C1.99133 8.47357 0.120001 12.8365 0.00557352 17.4187C-0.108854 22.0009 1.54237 26.4518 4.61768 29.8506C7.69298 33.2495 11.9571 35.3363 16.5278 35.6793C21.0986 36.0223 25.6264 34.5953 29.1745 31.6934L32.7474 35.2664C32.4152 35.5982 32.1517 35.9922 31.9719 36.426C31.7921 36.8597 31.6996 37.3247 31.6996 37.7942C31.6996 38.2638 31.7921 38.7287 31.9719 39.1624C32.1517 39.5962 32.4152 39.9902 32.7474 40.3221L40.858 48.4326C41.8629 49.4363 43.2251 50 44.6453 50C46.0656 50 47.4277 49.4363 48.4326 48.4326C49.4363 47.4277 50 46.0656 50 44.6453C50 43.2251 49.4363 41.8629 48.4326 40.858ZM3.55657 17.8483C3.55657 15.0217 4.39476 12.2585 5.96516 9.90824C7.53556 7.55798 9.76762 5.72617 12.3791 4.64446C14.9906 3.56275 17.8642 3.27973 20.6365 3.83118C23.4088 4.38263 25.9554 5.74379 27.9541 7.74252C29.9528 9.74126 31.314 12.2878 31.8654 15.0601C32.4169 17.8325 32.1339 20.706 31.0522 23.3175C29.9704 25.929 28.1386 28.1611 25.7884 29.7315C23.4381 31.3018 20.6749 32.14 17.8483 32.14C14.0579 32.14 10.4227 30.6343 7.74252 27.9541C5.0623 25.2739 3.55657 21.6387 3.55657 17.8483ZM45.9137 45.9137C45.579 46.2464 45.1262 46.4332 44.6542 46.4332C44.1823 46.4332 43.7295 46.2464 43.3948 45.9137L35.2842 37.8031L37.8031 35.2842L45.9137 43.3948C46.2464 43.7295 46.4332 44.1823 46.4332 44.6542C46.4332 45.1262 46.2464 45.579 45.9137 45.9137Z" fill="black"/>
<path d="M26.7806 19.6348C26.3068 19.6348 25.8524 19.4466 25.5174 19.1115C25.1824 18.7765 24.9942 18.3221 24.9942 17.8483C24.9942 15.9531 24.2413 14.1355 22.9012 12.7954C21.5611 11.4553 19.7435 10.7024 17.8483 10.7024C17.3745 10.7024 16.9201 10.5142 16.5851 10.1792C16.2501 9.84416 16.0618 9.38977 16.0618 8.91597C16.0618 8.44217 16.2501 7.98777 16.5851 7.65275C16.9201 7.31772 17.3745 7.1295 17.8483 7.1295C20.6911 7.1295 23.4175 8.2588 25.4276 10.269C27.4378 12.2791 28.5671 15.0055 28.5671 17.8483C28.5671 18.3221 28.3789 18.7765 28.0439 19.1115C27.7088 19.4466 27.2544 19.6348 26.7806 19.6348Z" fill="black"/>
</svg>
