<svg width="100" height="50" viewBox="0 0 100 50" fill="none" xmlns="http://www.w3.org/2000/svg">
<path d="M28.3576 2.29808L22.0282 46.9656C21.9163 47.7242 22.14 48.5051 22.6544 49.0852C23.1688 49.6653 23.9069 50 24.6897 50H90.9809C92.3228 50 93.4411 49.0406 93.6424 47.7019L99.9718 3.03436C100.084 2.27577 99.86 1.49487 99.3456 0.914771C98.8312 0.334673 98.0931 0 97.3103 0H31.0191C29.6772 0 28.5365 0.959394 28.3576 2.29808ZM33.0096 7.67514L48.7549 20.2365L28.4247 40.0045L33.0096 7.67514ZM59.3114 28.6479C59.8034 29.0272 60.385 29.228 60.9888 29.228C61.5032 29.228 62.0176 29.0718 62.4649 28.7818L69.1522 24.3641L85.3224 44.6006H31.3546L52.982 23.5832L59.3114 28.6479ZM61.1454 23.2709L38.6681 5.35475H88.3865L61.1454 23.2709ZM89.1917 40.8746L73.67 21.419L93.8213 8.14369L89.1917 40.8746Z" fill="white"/>
<path d="M3.6422 37C2.18899 37 1 38.125 1 39.5C1 40.875 2.18899 42 3.6422 42H10.3578C11.811 42 13 40.875 13 39.5C13 38.125 11.811 37 10.3578 37H3.6422Z" fill="#F61019"/>
<path d="M17 25C17 23.35 15.8116 22 14.359 22H3.64099C2.18845 22 1 23.35 1 25C1 26.65 2.18845 28 3.64099 28H14.359C15.8116 28 17 26.65 17 25Z" fill="#F61019"/>
<path d="M2.64317 13H17.3568C18.8106 13 20 11.875 20 10.5C20 9.125 18.8106 8 17.3568 8H2.64317C1.18943 8 0 9.125 0 10.5C0 11.875 1.18943 13 2.64317 13Z" fill="#F61019"/>
</svg>
