<svg width="50" height="50" viewBox="0 0 50 50" fill="none" xmlns="http://www.w3.org/2000/svg">
<path d="M26.6307 50H23.3894C22.8892 49.9999 22.3973 49.8727 21.9599 49.6304C21.5224 49.3881 21.1537 49.0386 20.8884 48.6147C20.6533 48.2446 19.2177 45.8392 18.4874 44.4139L15.8964 43.3487C14.3157 43.8488 11.4696 44.5589 11.2245 44.6189C10.7358 44.7313 10.2265 44.7178 9.74441 44.5796C9.26234 44.4414 8.82327 44.183 8.46839 43.8288L6.17247 41.5333C5.81774 41.1788 5.55907 40.7398 5.42081 40.2577C5.28255 39.7757 5.26925 39.2664 5.38215 38.7777C5.48219 38.3477 6.16247 35.6321 6.65266 34.1068L5.58724 31.5263C4.08663 30.7661 1.58563 29.2508 1.38555 29.1258C0.961608 28.8605 0.612044 28.4919 0.369682 28.0545C0.12732 27.6171 0.000111038 27.1253 0 26.6253L0 23.3747C0.000111038 22.8746 0.12732 22.3828 0.369682 21.9455C0.612044 21.5081 0.961608 21.1394 1.38555 20.8742C1.7557 20.6391 4.16166 19.2038 5.58724 18.4737L6.65266 15.8932C6.15246 14.3129 5.44218 11.4673 5.38215 11.2222C5.26973 10.7336 5.28326 10.2244 5.4215 9.74246C5.55973 9.26048 5.81813 8.82151 6.17247 8.46669L8.46839 6.17123C8.82301 5.81657 9.26206 5.55795 9.74421 5.41972C10.2264 5.28149 10.7358 5.26819 11.2245 5.38107C11.6547 5.48109 14.3707 6.16123 15.8964 6.65133L18.4774 5.58612C19.2377 4.08582 20.7533 1.58532 20.8784 1.38528C21.1437 0.961416 21.5124 0.611921 21.9499 0.369608C22.3873 0.127294 22.8792 0.000111016 23.3794 0H26.6206C27.1208 0.000111016 27.6127 0.127294 28.0501 0.369608C28.4876 0.611921 28.8563 0.961416 29.1217 1.38528C29.3567 1.75535 30.7923 4.16083 31.5226 5.58612L34.1036 6.65133C35.6843 6.15123 38.5304 5.44109 38.7755 5.38107C39.2642 5.26867 39.7735 5.2822 40.2556 5.42041C40.7377 5.55862 41.1767 5.81697 41.5316 6.17123L43.8275 8.46669C44.1823 8.82124 44.4409 9.2602 44.5792 9.74226C44.7175 10.2243 44.7308 10.7336 44.6178 11.2222C44.5178 11.6523 43.8375 14.3679 43.3473 15.8932L44.4128 18.4737C45.9134 19.2338 48.4144 20.7491 48.6144 20.8742C49.0384 21.1394 49.388 21.5081 49.6303 21.9455C49.8727 22.3828 49.9999 22.8746 50 23.3747V26.6153C49.9999 27.1153 49.8727 27.6071 49.6303 28.0445C49.388 28.4819 49.0384 28.8505 48.6144 29.1158C48.2443 29.3509 45.8383 30.7861 44.4128 31.5163L43.3673 34.1068C43.8675 35.6871 44.5778 38.5327 44.6379 38.7777C44.7503 39.2664 44.7367 39.7756 44.5985 40.2575C44.4603 40.7395 44.2019 41.1785 43.8475 41.5333L41.5516 43.8288C41.1967 44.183 40.7577 44.4414 40.2756 44.5796C39.7935 44.7178 39.2843 44.7313 38.7955 44.6189C38.3653 44.5189 35.6493 43.8388 34.1237 43.3487L31.5426 44.4139C30.7823 45.9142 29.2667 48.4147 29.1417 48.6147C28.8754 49.04 28.5051 49.3904 28.0658 49.6328C27.6264 49.8752 27.1325 50.0016 26.6307 50V50ZM15.9714 40.3781L20.5082 42.2634L20.7333 42.7635C21.1935 43.7637 22.8541 46.5743 23.2343 47.1494C23.2516 47.1774 23.276 47.2005 23.3049 47.2163C23.3339 47.232 23.3664 47.24 23.3994 47.2394H26.6407C26.6736 47.24 26.7062 47.232 26.7351 47.2163C26.764 47.2005 26.7884 47.1774 26.8057 47.1494C27.1008 46.6793 28.8065 43.8288 29.3067 42.7635L29.5318 42.2634L34.0836 40.3781L34.5838 40.5631C35.6192 40.9432 38.7755 41.7533 39.4408 41.9134C39.4717 41.9225 39.5046 41.9226 39.5356 41.9138C39.5666 41.9049 39.5944 41.8874 39.6158 41.8634L41.9118 39.5679C41.9354 39.5461 41.9525 39.5183 41.9613 39.4874C41.9701 39.4565 41.9703 39.4238 41.9618 39.3929C41.8367 38.8578 41.0264 35.6321 40.6112 34.5369L40.4262 34.0368L42.3019 29.4959L42.8021 29.2708C43.8025 28.8108 46.6136 27.1504 47.1889 26.7703C47.2169 26.753 47.24 26.7287 47.2557 26.6997C47.2715 26.6708 47.2795 26.6383 47.2789 26.6053V23.3647C47.2795 23.3317 47.2715 23.2992 47.2557 23.2702C47.24 23.2413 47.2169 23.217 47.1889 23.1996V23.1996C46.7187 22.9046 43.8675 21.1992 42.8021 20.6991L42.3019 20.4741L40.4162 15.9232L40.6012 15.4231C40.9814 14.3879 41.7917 11.2322 41.9518 10.5671C41.9588 10.5361 41.9578 10.5038 41.9491 10.4732C41.9404 10.4426 41.9241 10.4147 41.9018 10.3921L39.6058 8.09662C39.5841 8.07303 39.5562 8.05589 39.5253 8.04707C39.4944 8.03825 39.4617 8.03809 39.4308 8.04661C38.8956 8.17163 35.6793 8.98179 34.5738 9.39688L34.0736 9.58191L29.5118 7.70654L29.2867 7.20644C28.8265 6.20624 27.1659 3.39568 26.7857 2.82056C26.7684 2.79254 26.744 2.7695 26.7151 2.75372C26.6862 2.73794 26.6536 2.72995 26.6206 2.73055H23.3994C23.3664 2.72995 23.3339 2.73794 23.3049 2.75372C23.276 2.7695 23.2516 2.79254 23.2343 2.82056C22.9392 3.29066 21.2335 6.14123 20.7333 7.20644L20.5082 7.70654L15.9564 9.59192L15.4562 9.40688C14.4208 9.0268 11.2645 8.21664 10.5992 8.05661C10.5683 8.0475 10.5354 8.04736 10.5044 8.05622C10.4735 8.06507 10.4456 8.08255 10.4242 8.10662L8.12825 10.4021C8.10466 10.4239 8.08751 10.4517 8.07869 10.4826C8.06987 10.5135 8.06971 10.5462 8.07823 10.5771C8.20328 11.1122 9.01361 14.3379 9.42877 15.4331L9.61385 15.9332L7.7381 20.4941L7.2379 20.7191C6.2375 21.1792 3.42637 22.8396 2.85114 23.2196C2.82311 23.237 2.80007 23.2613 2.78428 23.2902C2.7685 23.3192 2.76051 23.3517 2.7611 23.3847V26.6253C2.76051 26.6583 2.7685 26.6908 2.78428 26.7197C2.80007 26.7487 2.82311 26.773 2.85114 26.7904C3.32133 27.0854 6.17247 28.7908 7.2379 29.2909L7.7381 29.5159L9.62385 34.0668L9.43878 34.5669C9.05862 35.6021 8.2483 38.7577 8.08824 39.4229C8.08126 39.4539 8.08218 39.4862 8.09092 39.5168C8.09966 39.5474 8.11593 39.5752 8.13826 39.5979L10.4342 41.8934C10.456 41.917 10.4838 41.9341 10.5147 41.9429C10.5456 41.9517 10.5783 41.9519 10.6092 41.9434C11.1445 41.8184 14.3607 41.0082 15.4662 40.5931L15.9714 40.3781ZM25.01 36.6773C22.699 36.6773 20.4399 35.9922 18.5183 34.7085C16.5968 33.4248 15.0992 31.6003 14.2148 29.4656C13.3304 27.331 13.099 24.982 13.5498 22.7159C14.0007 20.4497 15.1136 18.3681 16.7477 16.7343C18.3818 15.1005 20.4638 13.9879 22.7304 13.5371C24.997 13.0864 27.3464 13.3177 29.4815 14.2019C31.6166 15.0861 33.4415 16.5835 34.7255 18.5046C36.0094 20.4258 36.6947 22.6844 36.6947 24.995C36.6894 28.0917 35.4566 31.0601 33.2665 33.2498C31.0763 35.4395 28.1073 36.672 25.01 36.6773V36.6773ZM25.01 16.0782C23.2461 16.0782 21.5218 16.6012 20.0551 17.581C18.5885 18.5607 17.4453 19.9534 16.7703 21.5827C16.0953 23.212 15.9187 25.0049 16.2628 26.7346C16.6069 28.4643 17.4563 30.0531 18.7036 31.3001C19.9509 32.5471 21.54 33.3964 23.2701 33.7404C25.0001 34.0845 26.7933 33.9079 28.423 33.233C30.0526 32.5581 31.4455 31.4152 32.4255 29.9489C33.4055 28.4825 33.9286 26.7586 33.9286 24.995C33.9259 22.6309 32.9854 20.3644 31.3135 18.6928C29.6415 17.0212 27.3745 16.0809 25.01 16.0782V16.0782Z" fill="black"/>
</svg>
