<svg width="50" height="39" viewBox="0 0 50 39" fill="none" xmlns="http://www.w3.org/2000/svg">
<path d="M0 29.1474H3.45805C4.42177 25.8084 7.59637 23.4 11.2245 23.4C14.8526 23.4 18.0839 25.8084 18.9909 29.1474H50V33.2526H18.9909C18.0272 36.5916 14.8526 39 11.2245 39C7.59637 39 4.36508 36.5916 3.45805 33.2526H0V29.1474ZM11.2245 27.1221C8.90023 27.1221 6.97279 28.9832 6.97279 31.2274C6.97279 33.4716 8.90023 35.3326 11.2245 35.3326C13.5488 35.3326 15.4762 33.4716 15.4762 31.2274C15.4762 28.9832 13.5488 27.1221 11.2245 27.1221Z" fill="black"/>
<path d="M0 5.74737H22.9592C23.8662 2.40842 27.0408 0 30.7256 0C34.3537 0 37.585 2.40842 38.4921 5.74737H50V9.85263H38.4921C37.5283 13.1916 34.3537 15.6 30.7256 15.6C27.0975 15.6 23.8662 13.1916 22.9592 9.85263H0V5.74737ZM30.839 3.72211C28.5147 3.72211 26.5873 5.58316 26.5873 7.82737C26.5873 10.0716 28.5147 11.9326 30.839 11.9326C33.1633 11.9326 35.0907 10.0716 35.0907 7.82737C35.0907 5.58316 33.1633 3.72211 30.839 3.72211Z" fill="black"/>
</svg>
