<svg width="45" height="50" viewBox="0 0 45 50" fill="none" xmlns="http://www.w3.org/2000/svg">
<path d="M22.5 29.607C19.1009 29.6076 15.8067 28.4207 13.1788 26.2486C10.5508 24.0764 8.75166 21.0534 8.08783 17.6945C7.424 14.3357 7.93658 10.8488 9.53824 7.82805C11.1399 4.80728 13.7315 2.43951 16.8716 1.12816C20.0116 -0.183187 23.5058 -0.356979 26.7587 0.636398C30.0117 1.62977 32.8222 3.72886 34.7113 6.576C36.6004 9.42315 37.4514 12.8422 37.1191 16.2506C36.7868 19.659 35.2919 22.8459 32.889 25.2683C31.528 26.6476 29.909 27.7412 28.1258 28.4859C26.3425 29.2307 24.4303 29.6117 22.5 29.607V29.607ZM22.5 4.55447C20.4871 4.55447 18.5194 5.15603 16.8459 6.28304C15.1724 7.41006 13.8683 9.01188 13.0985 10.8859C12.3287 12.7598 12.1279 14.8217 12.5214 16.8107C12.915 18.7997 13.8852 20.6264 15.3093 22.0597C16.7335 23.493 18.5475 24.4685 20.522 24.8627C22.4966 25.257 24.5427 25.0523 26.4018 24.2746C28.2608 23.4969 29.8491 22.181 30.9657 20.4936C32.0824 18.8061 32.6772 16.8229 32.6749 14.7947C32.6688 12.0787 31.5944 9.47589 29.6873 7.55647C27.7801 5.63705 25.1956 4.55755 22.5 4.55447V4.55447ZM42.7398 50C42.1404 50 41.5655 49.7601 41.1417 49.333C40.7178 48.9059 40.4797 48.3267 40.4797 47.7228C40.4797 45.3438 40.0146 42.9881 39.1111 40.7901C38.2075 38.5922 36.8831 36.5952 35.2136 34.9129C33.544 33.2307 31.5619 31.8963 29.3805 30.9859C27.1991 30.0755 24.8611 29.607 22.5 29.607C20.1388 29.607 17.8008 30.0755 15.6194 30.9859C13.438 31.8963 11.456 33.2307 9.78639 34.9129C8.11682 36.5952 6.79244 38.5922 5.88888 40.7901C4.98531 42.9881 4.52025 45.3438 4.52025 47.7228C4.52025 48.3267 4.28213 48.9059 3.85828 49.333C3.43442 49.7601 2.85955 50 2.26013 50C1.6607 50 1.08583 49.7601 0.661976 49.333C0.23812 48.9059 0 48.3267 0 47.7228C0.00272594 42.4925 1.79983 37.4239 5.08687 33.3758C8.3739 29.3277 12.9488 26.5489 18.0364 25.5102C23.124 24.4715 28.4116 25.2368 33.0033 27.6764C37.595 30.116 41.2086 34.08 43.2318 38.8967C44.4054 41.6886 45.0068 44.6907 44.9999 47.7228C45.0003 48.0219 44.9421 48.3182 44.8287 48.5947C44.7152 48.8711 44.5488 49.1223 44.3388 49.3339C44.1289 49.5454 43.8796 49.7131 43.6052 49.8274C43.3308 49.9417 43.0367 50.0004 42.7398 50V50Z" fill="black"/>
</svg>
