<svg width="40" height="40" viewBox="0 0 40 40" fill="none" xmlns="http://www.w3.org/2000/svg">
<path d="M1.68834 1C1.71207 1 33.632 1 33.6557 1C34.074 1 34.4152 1.34129 34.4152 1.75973V3.92022C34.4181 3.9588 34.4181 4.00035 34.4152 4.03893C34.4152 4.05377 34.4152 4.07158 34.4152 4.08641C34.4122 4.19325 34.3885 4.29712 34.344 4.39506C34.3291 4.41286 34.3143 4.4277 34.2965 4.44254C34.2698 4.48409 34.2372 4.52564 34.2016 4.56125C34.1927 4.57015 34.0918 4.67105 34.0829 4.67996L22.2642 17.2393V35.188C22.2583 35.4551 22.11 35.7014 21.8786 35.832C21.6442 35.9655 21.3565 35.9626 21.1251 35.829L13.5307 31.2706C13.3023 31.1371 13.157 30.8937 13.151 30.6296V17.2393L1.21369 4.56125C1.07723 4.42177 1.00307 4.2348 1.0001 4.03893V1.75973C0.994167 1.38877 1.25522 1.06826 1.61714 1C1.64087 1 1.6646 1 1.68834 1V1ZM2.51897 3.75403L14.2427 16.1947H21.1725L32.8963 3.75403V2.51947H2.51897V3.75403ZM14.6699 30.226L20.7454 33.8584V17.7141H14.6699V30.226ZM26.6072 25.5251L32.1369 31.0569L37.6665 25.5251C37.7881 25.4064 37.9483 25.3293 38.1174 25.3115C38.4467 25.258 38.776 25.4242 38.9213 25.7269C39.0696 26.0267 39.0044 26.3887 38.7582 26.6172L33.2285 32.149L38.7582 37.6809C39.0608 37.9836 39.0608 38.4703 38.7582 38.773C38.4556 39.0757 37.9691 39.0757 37.6665 38.773L32.1369 33.2412L26.6072 38.773C26.3046 39.0757 25.8181 39.0757 25.5155 38.773C25.213 38.4703 25.213 37.9836 25.5155 37.6809L31.0452 32.149L25.5155 26.6172C25.3049 26.4214 25.2219 26.1246 25.302 25.8456C25.3821 25.5696 25.6105 25.3619 25.8953 25.3115C25.9249 25.3026 25.9576 25.2936 25.9902 25.2877C26.2216 25.2699 26.45 25.356 26.6072 25.5251V25.5251Z" fill="black" stroke="black" stroke-miterlimit="10" stroke-linejoin="round"/>
</svg>
