<svg width="40" height="36" viewBox="0 0 40 36" fill="none" xmlns="http://www.w3.org/2000/svg">
<path d="M34.6855 2.86726H32.1103V1.35398C32.1103 0.60531 31.4987 0 30.7422 0C29.9857 0 29.3741 0.60531 29.3741 1.35398V2.86726H10.462V1.35398C10.462 0.60531 9.85037 0 9.09389 0C8.33741 0 7.72578 0.60531 7.72578 1.35398V2.86726H4.58718C2.06021 2.86726 0 4.8823 0 7.38319V11.5726V14.2805V31.4602C0 33.9611 2.05216 36 4.58718 36H34.6855C37.2125 36 39.2727 33.9611 39.2727 31.4602V14.2805V11.5726V7.38319C39.2727 4.8823 37.2206 2.86726 34.6855 2.86726ZM36.5365 31.4602C36.5365 32.4717 35.7076 33.292 34.6855 33.292H4.58718C3.56513 33.292 2.73621 32.4717 2.73621 31.4602V14.2566H36.5365V31.4602ZM2.73621 11.5487V7.38319C2.73621 6.37168 3.56513 5.57522 4.58718 5.57522H7.72578V6.58673C7.72578 7.3354 8.33741 7.94071 9.09389 7.94071C9.85037 7.94071 10.462 7.3354 10.462 6.58673V5.57522H29.3741V6.58673C29.3741 7.3354 29.9857 7.94071 30.7422 7.94071C31.4987 7.94071 32.1103 7.3354 32.1103 6.58673V5.57522H34.6855C35.7076 5.57522 36.5365 6.37168 36.5365 7.38319V11.5487H2.73621Z" fill="black"/>
</svg>
