<svg width="39" height="29" viewBox="0 0 39 29" fill="none" xmlns="http://www.w3.org/2000/svg">
<path d="M1.4881 28.9977C0.6261 28.9581 -0.0379149 28.2271 0.00168279 27.3651C0.0412805 26.5031 0.772305 25.8391 1.6343 25.8787H4.75334C5.31684 25.8695 5.83769 26.165 6.12097 26.6523C6.40728 27.1366 6.40728 27.7397 6.12097 28.224C5.83769 28.7114 5.31684 29.0069 4.75334 28.9977H1.6343C1.58557 29.0008 1.53683 29.0008 1.4881 28.9977V28.9977ZM31.0946 28.2423C30.2905 28.154 29.6874 27.4656 29.7056 26.6584V7.40814L26.2211 10.8927C25.9287 11.2003 25.5236 11.377 25.1002 11.38C24.4636 11.3861 23.8849 11.0023 23.6442 10.4114C23.4036 9.82051 23.5468 9.14432 24.0036 8.69961L31.2652 1.4381L38.5267 8.69961C38.9318 9.09254 39.0932 9.67431 38.947 10.2195C38.8008 10.7648 38.3713 11.1881 37.8261 11.3283C37.2778 11.4684 36.6991 11.3008 36.3092 10.8927L32.8247 7.40814V26.6584C32.8308 27.0818 32.6663 27.4869 32.3678 27.7854C32.0693 28.0839 31.6642 28.2484 31.2408 28.2423C31.192 28.2454 31.1433 28.2454 31.0946 28.2423V28.2423ZM1.4881 22.7596C0.6261 22.72 -0.0379149 21.989 0.00168279 21.127C0.0412805 20.265 0.772305 19.601 1.6343 19.6406H7.87238C8.43588 19.6315 8.95673 19.9269 9.24 20.4143C9.52632 20.8986 9.52632 21.5017 9.24 21.986C8.95673 22.4733 8.43588 22.7688 7.87238 22.7596H1.6343C1.58557 22.7627 1.53683 22.7627 1.4881 22.7596V22.7596ZM1.4881 16.5216C0.6261 16.482 -0.0379149 15.7509 0.00168279 14.8889C0.0412805 14.0269 0.772305 13.3629 1.6343 13.4025H10.9914C11.5549 13.3934 12.0758 13.6888 12.359 14.1762C12.6454 14.6605 12.6454 15.2636 12.359 15.7479C12.0758 16.2353 11.5549 16.5307 10.9914 16.5216H1.6343C1.58557 16.5246 1.53683 16.5246 1.4881 16.5216V16.5216ZM1.4881 10.2835C0.6261 10.2439 -0.0379149 9.51287 0.00168279 8.65088C0.0412805 7.78888 0.772305 7.12486 1.6343 7.16446H14.1104C14.6739 7.15532 15.1948 7.45078 15.4781 7.93813C15.7644 8.42243 15.7644 9.02552 15.4781 9.50983C15.1948 9.99718 14.6739 10.2926 14.1104 10.2835H1.6343C1.58557 10.2865 1.53683 10.2865 1.4881 10.2835V10.2835ZM1.4881 4.04542C0.6261 4.00582 -0.0379149 3.2748 0.00168279 2.4128C0.0412805 1.5508 0.772305 0.886789 1.6343 0.926387H19.5688C20.1323 0.91725 20.6531 1.2127 20.9364 1.70005C21.2227 2.18436 21.2227 2.78745 20.9364 3.27175C20.6531 3.7591 20.1323 4.05456 19.5688 4.04542H1.6343C1.58557 4.04847 1.53683 4.04847 1.4881 4.04542V4.04542Z" fill="black"/>
</svg>
