<svg width="39" height="28" viewBox="0 0 39 28" fill="none" xmlns="http://www.w3.org/2000/svg">
<g clip-path="url(#clip0)">
<path d="M1.4881 28.073C0.6261 28.0334 -0.0379149 27.3024 0.00168279 26.4404C0.0412805 25.5784 0.772305 24.9144 1.6343 24.954H4.75334C5.31684 24.9448 5.83769 25.2403 6.12097 25.7276C6.40728 26.2119 6.40728 26.815 6.12097 27.2993C5.83769 27.7867 5.31684 28.0821 4.75334 28.073H1.6343C1.58557 28.0761 1.53683 28.0761 1.4881 28.073V28.073ZM31.0946 27.3176C30.2905 27.2293 29.6874 26.5409 29.7056 25.7337V6.48343L26.2211 9.96798C25.9287 10.2756 25.5236 10.4523 25.1002 10.4553C24.4636 10.4614 23.8849 10.0776 23.6442 9.48672C23.4036 8.89581 23.5468 8.21961 24.0036 7.7749L31.2652 0.513397L38.5267 7.7749C38.9318 8.16783 39.0932 8.7496 38.947 9.29483C38.8008 9.84005 38.3713 10.2634 37.8261 10.4035C37.2778 10.5437 36.6991 10.3761 36.3092 9.96798L32.8247 6.48343V25.7337C32.8308 26.1571 32.6663 26.5622 32.3678 26.8607C32.0693 27.1592 31.6642 27.3237 31.2408 27.3176C31.192 27.3207 31.1433 27.3207 31.0946 27.3176V27.3176ZM1.4881 21.8349C0.6261 21.7953 -0.0379149 21.0643 0.00168279 20.2023C0.0412805 19.3403 0.772305 18.6763 1.6343 18.7159H7.87238C8.43588 18.7068 8.95673 19.0022 9.24 19.4896C9.52632 19.9739 9.52632 20.577 9.24 21.0613C8.95673 21.5486 8.43588 21.8441 7.87238 21.8349H1.6343C1.58557 21.838 1.53683 21.838 1.4881 21.8349V21.8349ZM1.4881 15.5969C0.6261 15.5573 -0.0379149 14.8262 0.00168279 13.9642C0.0412805 13.1022 0.772305 12.4382 1.6343 12.4778H10.9914C11.5549 12.4687 12.0758 12.7641 12.359 13.2515C12.6454 13.7358 12.6454 14.3389 12.359 14.8232C12.0758 15.3105 11.5549 15.606 10.9914 15.5969H1.6343C1.58557 15.5999 1.53683 15.5999 1.4881 15.5969V15.5969ZM1.4881 9.35879C0.6261 9.31919 -0.0379149 8.58817 0.00168279 7.72617C0.0412805 6.86417 0.772305 6.20016 1.6343 6.23975H14.1104C14.6739 6.23062 15.1948 6.52607 15.4781 7.01342C15.7644 7.49772 15.7644 8.10082 15.4781 8.58512C15.1948 9.07247 14.6739 9.36793 14.1104 9.35879H1.6343C1.58557 9.36184 1.53683 9.36184 1.4881 9.35879V9.35879ZM1.4881 3.12072C0.6261 3.08112 -0.0379149 2.3501 0.00168279 1.4881C0.0412805 0.626098 0.772305 -0.037916 1.6343 0.00168168H19.5688C20.1323 -0.00745556 20.6531 0.287998 20.9364 0.775347C21.2227 1.25965 21.2227 1.86275 20.9364 2.34705C20.6531 2.8344 20.1323 3.12985 19.5688 3.12072H1.6343C1.58557 3.12376 1.53683 3.12376 1.4881 3.12072V3.12072Z" fill="black"/>
</g>
<g clip-path="url(#clip1)">
<path d="M60.5119 -0.0730097C61.3739 -0.033412 62.0379 0.697612 61.9983 1.55961C61.9587 2.42161 61.2277 3.08562 60.3657 3.04603L57.2467 3.04603C56.6832 3.05516 56.1623 2.75971 55.879 2.27236C55.5927 1.78806 55.5927 1.18496 55.879 0.700658C56.1623 0.213309 56.6832 -0.0821473 57.2467 -0.07301L60.3657 -0.0730098C60.4144 -0.0760563 60.4632 -0.0760563 60.5119 -0.0730097V-0.0730097ZM30.9054 0.682379C31.7095 0.770712 32.3126 1.45909 32.2944 2.26627L32.2944 21.5166L35.7789 18.032C36.0713 17.7244 36.4764 17.5477 36.8998 17.5447C37.5364 17.5386 38.1151 17.9224 38.3558 18.5133C38.5964 19.1042 38.4532 19.7804 37.9964 20.2251L30.7348 27.4866L23.4733 20.2251C23.0682 19.8322 22.9068 19.2504 23.053 18.7052C23.1992 18.1599 23.6287 17.7366 24.1739 17.5965C24.7222 17.4563 25.3009 17.6239 25.6908 18.032L29.1753 21.5166L29.1753 2.26627C29.1692 1.84288 29.3337 1.43777 29.6322 1.13927C29.9307 0.840768 30.3358 0.676289 30.7592 0.682379C30.808 0.679333 30.8567 0.679333 30.9054 0.682379V0.682379ZM60.5119 6.16506C61.3739 6.20466 62.0379 6.93569 61.9983 7.79768C61.9587 8.65968 61.2277 9.3237 60.3657 9.2841L54.1276 9.2841C53.5641 9.29324 53.0433 8.99778 52.76 8.51043C52.4737 8.02613 52.4737 7.42303 52.76 6.93873C53.0433 6.45138 53.5641 6.15593 54.1276 6.16506L60.3657 6.16506C60.4144 6.16202 60.4632 6.16202 60.5119 6.16506V6.16506ZM60.5119 12.4031C61.3739 12.4427 62.0379 13.1738 61.9983 14.0358C61.9587 14.8978 61.2277 15.5618 60.3657 15.5222L51.0086 15.5222C50.4451 15.5313 49.9242 15.2359 49.641 14.7485C49.3546 14.2642 49.3546 13.6611 49.641 13.1768C49.9242 12.6895 50.4451 12.394 51.0086 12.4031L60.3657 12.4031C60.4144 12.4001 60.4632 12.4001 60.5119 12.4031V12.4031ZM60.5119 18.6412C61.3739 18.6808 62.0379 19.4118 61.9983 20.2738C61.9587 21.1358 61.2277 21.7998 60.3657 21.7602L47.8895 21.7602C47.326 21.7694 46.8052 21.4739 46.5219 20.9866C46.2356 20.5023 46.2356 19.8992 46.5219 19.4149C46.8052 18.9275 47.3261 18.6321 47.8895 18.6412L60.3657 18.6412C60.4144 18.6382 60.4632 18.6382 60.5119 18.6412V18.6412ZM60.5119 24.8793C61.3739 24.9189 62.0379 25.6499 61.9983 26.5119C61.9587 27.3739 61.2277 28.0379 60.3657 27.9983L42.4312 27.9983C41.8677 28.0075 41.3469 27.712 41.0636 27.2247C40.7773 26.7403 40.7773 26.1373 41.0636 25.6529C41.3469 25.1656 41.8677 24.8701 42.4312 24.8793L60.3657 24.8793C60.4144 24.8762 60.4632 24.8762 60.5119 24.8793V24.8793Z" fill="black"/>
</g>
<defs>
<clipPath id="clip0">
<rect width="22" height="28" fill="white"/>
</clipPath>
<clipPath id="clip1">
<rect width="16" height="28" fill="white" transform="translate(39 28) rotate(-180)"/>
</clipPath>
</defs>
</svg>
