<svg width="39" height="29" viewBox="0 0 39 29" fill="none" xmlns="http://www.w3.org/2000/svg">
<path d="M1.4881 0.00228488C0.6261 0.0418826 -0.0379149 0.772907 0.00168279 1.63491C0.0412805 2.4969 0.772305 3.16092 1.6343 3.12132H4.75334C5.31684 3.13046 5.83769 2.835 6.12097 2.34766C6.40728 1.86335 6.40728 1.26026 6.12097 0.775953C5.83769 0.288604 5.31684 -0.00685236 4.75334 0.00228488H1.6343C1.58557 -0.000761625 1.53683 -0.000761625 1.4881 0.00228488V0.00228488ZM31.0946 0.757677C30.2905 0.846009 29.6874 1.53439 29.7056 2.34156V21.5919L26.2211 18.1073C25.9287 17.7997 25.5236 17.623 25.1002 17.62C24.4636 17.6139 23.8849 17.9977 23.6442 18.5886C23.4036 19.1795 23.5468 19.8557 24.0036 20.3004L31.2652 27.5619L38.5267 20.3004C38.9318 19.9075 39.0932 19.3257 38.947 18.7805C38.8008 18.2352 38.3713 17.8119 37.8261 17.6717C37.2778 17.5316 36.6991 17.6992 36.3092 18.1073L32.8247 21.5919V2.34156C32.8308 1.91818 32.6663 1.51307 32.3678 1.21457C32.0693 0.916065 31.6642 0.751586 31.2408 0.757677C31.192 0.75463 31.1433 0.75463 31.0946 0.757677V0.757677ZM1.4881 6.24036C0.6261 6.27996 -0.0379149 7.01098 0.00168279 7.87298C0.0412805 8.73498 0.772305 9.39899 1.6343 9.35939H7.87238C8.43588 9.36853 8.95673 9.07308 9.24 8.58573C9.52632 8.10143 9.52632 7.49833 9.24 7.01403C8.95673 6.52668 8.43588 6.23122 7.87238 6.24036H1.6343C1.58557 6.23731 1.53683 6.23731 1.4881 6.24036V6.24036ZM1.4881 12.4784C0.6261 12.518 -0.0379149 13.2491 0.00168279 14.1111C0.0412805 14.9731 0.772305 15.6371 1.6343 15.5975H10.9914C11.5549 15.6066 12.0758 15.3112 12.359 14.8238C12.6454 14.3395 12.6454 13.7364 12.359 13.2521C12.0758 12.7647 11.5549 12.4693 10.9914 12.4784H1.6343C1.58557 12.4754 1.53683 12.4754 1.4881 12.4784V12.4784ZM1.4881 18.7165C0.6261 18.7561 -0.0379149 19.4871 0.00168279 20.3491C0.0412805 21.2111 0.772305 21.8751 1.6343 21.8355H14.1104C14.6739 21.8447 15.1948 21.5492 15.4781 21.0619C15.7644 20.5776 15.7644 19.9745 15.4781 19.4902C15.1948 19.0028 14.6739 18.7074 14.1104 18.7165H1.6343C1.58557 18.7135 1.53683 18.7135 1.4881 18.7165V18.7165ZM1.4881 24.9546C0.6261 24.9942 -0.0379149 25.7252 0.00168279 26.5872C0.0412805 27.4492 0.772305 28.1132 1.6343 28.0736H19.5688C20.1323 28.0828 20.6531 27.7873 20.9364 27.2999C21.2227 26.8156 21.2227 26.2125 20.9364 25.7282C20.6531 25.2409 20.1323 24.9454 19.5688 24.9546H1.6343C1.58557 24.9515 1.53683 24.9515 1.4881 24.9546V24.9546Z" fill="black"/>
</svg>
