<svg width="22" height="22" viewBox="0 0 22 22" fill="none" xmlns="http://www.w3.org/2000/svg">
<path d="M20.8088 1.19129L9.60662 12.3956M1.24685 8.30533L20.478 1.02538C20.5474 0.998845 20.6229 0.992965 20.6956 1.00846C20.7682 1.02395 20.8348 1.06014 20.8873 1.11268C20.9399 1.16521 20.9761 1.23183 20.9915 1.30449C21.007 1.37715 21.0012 1.45274 20.9746 1.52213L13.6961 20.7571C13.6672 20.8301 13.6166 20.8925 13.5511 20.936C13.4856 20.9794 13.4084 21.0017 13.3298 20.9999C13.2513 20.9981 13.1752 20.9723 13.1117 20.926C13.0483 20.8797 13.0006 20.815 12.975 20.7407L9.73451 12.7539C9.69673 12.6407 9.63315 12.5379 9.54879 12.4535C9.46443 12.3691 9.3616 12.3055 9.24844 12.2677L1.2632 9.02952C1.18797 9.00449 1.12232 8.95682 1.07522 8.89303C1.02813 8.82924 1.00189 8.75246 1.0001 8.67318C0.998309 8.59391 1.02106 8.51601 1.06523 8.45017C1.10939 8.38432 1.17283 8.33373 1.24685 8.30533Z" stroke="#F61019" stroke-width="1.5" stroke-linecap="round" stroke-linejoin="round"/>
</svg>
