<svg width="50" height="50" viewBox="0 0 50 50" fill="none" xmlns="http://www.w3.org/2000/svg">
<path d="M50 24.3568C50 37.8077 39.011 48.712 25.4524 48.712C21.1498 48.712 17.108 47.6114 13.5895 45.6843L0 50L4.42984 36.9289C2.19617 33.2605 0.909773 28.9529 0.909773 24.3552C0.911403 10.9042 11.8972 0 25.4557 0C39.0126 0.00326083 50 10.9059 50 24.3568ZM25.4508 3.88365C14.0721 3.88365 4.81625 13.0694 4.81625 24.3617C4.81625 28.8421 6.27711 32.9899 8.74719 36.3648L6.17113 43.9675L14.0982 41.4485C17.3591 43.5876 21.2606 44.8332 25.4508 44.8332C36.8295 44.8332 46.0886 35.6491 46.0886 24.3568C46.0919 13.0694 36.8311 3.88365 25.4508 3.88365ZM37.8485 29.9671C37.6952 29.7209 37.2942 29.5709 36.6942 29.2709C36.0958 28.9709 33.1333 27.528 32.5839 27.3323C32.0295 27.1318 31.6285 27.0307 31.2274 27.629C30.8312 28.2274 29.6769 29.5709 29.3231 29.972C28.9725 30.3714 28.622 30.422 28.0203 30.1268C27.4187 29.8236 25.4785 29.1975 23.1796 27.1644C21.3911 25.5796 20.1829 23.628 19.834 23.0296C19.4802 22.4329 19.7982 22.1101 20.0965 21.8134C20.3655 21.5443 20.6981 21.1155 20.9998 20.765C21.3014 20.4177 21.4009 20.1715 21.6014 19.7721C21.7987 19.3726 21.6992 19.0253 21.5509 18.7237C21.4009 18.4237 20.1992 15.489 19.6954 14.2939C19.1949 13.1004 18.6944 13.2977 18.3422 13.2977C17.9917 13.2977 17.5906 13.2488 17.1895 13.2488C16.7884 13.2488 16.1362 13.3939 15.5868 13.9922C15.0373 14.5906 13.4819 16.0335 13.4819 18.9715C13.4819 21.9128 15.6357 24.7481 15.9373 25.1459C16.2406 25.5421 20.1014 31.7687 26.2171 34.1589C32.3361 36.5474 32.3361 35.7502 33.4382 35.6491C34.5436 35.548 36.9991 34.2062 37.498 32.8138C38.0001 31.4149 38.0001 30.2165 37.8485 29.9671Z" fill="black"/>
</svg>
