<svg width="29" height="29" viewBox="0 0 29 29" fill="none" xmlns="http://www.w3.org/2000/svg">
<path d="M2.44643 26.5536L7.80357 25.0804C9.72321 26.2857 12.0446 27 14.5 27C21.4196 27 27 21.4196 27 14.5C27 7.58036 21.4196 2 14.5 2C7.58036 2 2 7.58036 2 14.5C2 16.9554 2.71429 19.2768 3.91964 21.1964L2.44643 26.5536Z" fill="#25D366" stroke="white" stroke-width="2.23214" stroke-miterlimit="10"/>
<path d="M20.704 17.8929C19.8558 19.6786 18.2933 19.9018 18.2933 19.9018C16.954 20.1697 15.2576 19.5893 13.9183 18.9643C11.9987 18.0714 10.3469 16.6429 9.23081 14.8125C8.73974 13.9643 8.29331 12.9822 8.24867 12.0447C8.24867 12.0447 8.07009 10.4822 9.58795 9.23216C9.72188 9.14287 9.85581 9.09823 10.0344 9.09823H10.704C10.9719 9.09823 11.2397 9.2768 11.329 9.54466L12.3558 12.0447C12.4451 12.3125 12.4005 12.5804 12.2219 12.8036L11.5522 13.5179C11.329 13.7411 11.329 14.0536 11.463 14.3214C11.5076 14.4107 11.5969 14.5447 11.7308 14.6786C12.5344 15.75 13.6058 16.5536 14.8112 17.0893C14.9897 17.1786 15.1237 17.2232 15.2576 17.2679C15.5701 17.3572 15.838 17.2232 16.0165 17L16.5522 16.1964C16.6862 15.9732 16.954 15.8393 17.2219 15.8839L19.9005 16.2857C20.1683 16.3304 20.3915 16.5536 20.4808 16.8214L20.6594 17.4911C20.7487 17.5804 20.7487 17.7589 20.704 17.8929Z" fill="white"/>
</svg>
